{
.appVersion = "1342";
DisplayStrings = (
"/space/nbspace"
);
classes = (
{

glyphs = (
{
glyphname = .notdef;
layers = (
{
layerId = "678C5AFE-F8DA-443A-BB17-9B03ED7099AB";
paths = (
{
closed = 1;
nodes = (
"50 0 LINE",
"477 0 LINE",
"477 700 LINE",
"50 700 LINE"
);
},
{
closed = 1;
nodes = (
"79 21 LINE",
"264 329 LINE",
"449 21 LINE"
);
},
{
closed = 1;
nodes = (
"71 49 LINE",
"71 650 LINE",
"251 350 LINE"
);
},
{
closed = 1;
nodes = (
"457 47 LINE",
"276 350 LINE",
"457 652 LINE"
);
},
{
closed = 1;
nodes = (
"263 371 LINE",
"78 680 LINE",
"449 680 LINE"
);
}
);
width = 527;
}
);
},
{
color = (255,153,254,255);
glyphname = zero;
layers = (
{
layerId = "678C5AFE-F8DA-443A-BB17-9B03ED7099AB";
paths = (
{
closed = 1;
nodes = (
"465 -12 OFFCURVE",
"572 112 OFFCURVE",
"600 334 CURVE SMOOTH",
"628 556 OFFCURVE",
"550 680 OFFCURVE",
"378 680 CURVE SMOOTH",
"207 680 OFFCURVE",
"100 556 OFFCURVE",
"72 334 CURVE SMOOTH",
"44 112 OFFCURVE",
"122 -12 OFFCURVE",
"293 -12 CURVE SMOOTH"
);
},
{
closed = 1;
nodes = (
"408 98 LINE",
"379 75 OFFCURVE",
"344 63 OFFCURVE",
"302 63 CURVE SMOOTH",
"166 63 OFFCURVE",
"146 197 OFFCURVE",
"163 334 CURVE SMOOTH",
"172 403 OFFCURVE",
"187 460 OFFCURVE",
"211 503 CURVE"
);
},
{
closed = 1;
nodes = (
"270 574 LINE",
"297 594 OFFCURVE",
"330 605 OFFCURVE",
"369 605 CURVE SMOOTH",
"518 605 OFFCURVE",
"523 445 OFFCURVE",
"509 334 CURVE SMOOTH",
"501 269 OFFCURVE",
"486 215 OFFCURVE",
"465 172 CURVE"
);
}
);
width = 654;
}
);
unicode = 0030;
},
{
color = (255,153,254,255);
glyphname = one;
layers = (
{
layerId = "678C5AFE-F8DA-443A-BB17-9B03ED7099AB";
paths = (
{
closed = 1;
nodes = (
"158 0 LINE",
"243 0 LINE",
"385 668 LINE",
"327 668 LINE",
"299 609 OFFCURVE",
"242 571 OFFCURVE",
"101 571 CURVE",
"87 503 LINE",
"265 503 LINE"
);
}
);
width = 403;
}
);
unicode = 0031;
},
{
color = (255,153,254,255);
glyphname = two;
layers = (
{
layerId = "678C5AFE-F8DA-443A-BB17-9B03ED7099AB";
paths = (
{
closed = 1;
nodes = (
"-18 0 LINE",
"463 0 LINE",
"479 77 LINE",
"131 77 LINE",
"328 188 OFFCURVE",
"514 315 OFFCURVE",
"543 461 CURVE SMOOTH",
"573 612 OFFCURVE",
"467 680 OFFCURVE",
"344 680 CURVE SMOOTH",
"227 680 OFFCURVE",
"143 626 OFFCURVE",
"96 522 CURVE",
"174 498 LINE",
"210 584 OFFCURVE",
"279 610 OFFCURVE",
"341 610 CURVE SMOOTH",
"409 610 OFFCURVE",
"473 559 OFFCURVE",
"451 465 CURVE SMOOTH",
"423 347 OFFCURVE",
"269 228 OFFCURVE",
"-2 76 CURVE"
);
}
);
width = 565;
}
);
unicode = 0032;
},
{
color = (255,153,254,255);
glyphname = three;
layers = (
{
layerId = "678C5AFE-F8DA-443A-BB17-9B03ED7099AB";
paths = (
{
closed = 1;
nodes = (
"32 158 LINE",
"49 61 OFFCURVE",
"124 -12 OFFCURVE",
"259 -12 CURVE SMOOTH",
"424 -12 OFFCURVE",
"505 92 OFFCURVE",
"505 198 CURVE SMOOTH",
"505 264 OFFCURVE",
"480 321 OFFCURVE",
"403 347 CURVE",
"483 373 OFFCURVE",
"538 430 OFFCURVE",
"538 520 CURVE SMOOTH",
"538 639 OFFCURVE",
"425 680 OFFCURVE",
"323 680 CURVE SMOOTH",
"201 680 OFFCURVE",
"119 616 OFFCURVE",
"91 523 CURVE",
"169 498 LINE",
"191 566 OFFCURVE",
"237 610 OFFCURVE",
"318 610 CURVE SMOOTH",
"389 610 OFFCURVE",
"449 573 OFFCURVE",
"446 501 CURVE SMOOTH",
"442 399 OFFCURVE",
"334 390 OFFCURVE",
"230 390 CURVE",
"214 315 LINE",
"294 315 OFFCURVE",
"416 311 OFFCURVE",
"416 187 CURVE SMOOTH",
"416 109 OFFCURVE",
"344 58 OFFCURVE",
"261 58 CURVE SMOOTH",
"176 58 OFFCURVE",
"128 108 OFFCURVE",
"118 181 CURVE"
);
}
);
width = 580;
}
);
unicode = 0033;
},
{
color = (255,153,254,255);
glyphname = four;
layers = (
{
layerId = "678C5AFE-F8DA-443A-BB17-9B03ED7099AB";
paths = (
{
closed = 1;
nodes = (
"17 165 LINE",
"356 165 LINE",
"320 0 LINE",
"407 0 LINE",
"442 165 LINE",
"566 165 LINE",
"583 244 LINE",
"459 244 LINE",
"549 668 LINE",
"462 668 LINE",
"34 244 LINE"
);
},
{
closed = 1;
nodes = (
"127 244 LINE",
"438 552 LINE",
"372 244 LINE"
);
}
);
width = 636;
}
);
unicode = 0034;
},
{
color = (255,153,254,255);
glyphname = five;
layers = (
{
layerId = "678C5AFE-F8DA-443A-BB17-9B03ED7099AB";
paths = (
{
closed = 1;
nodes = (
"25 154 LINE",
"47 62 OFFCURVE",
"115 -6 OFFCURVE",
"238 -12 CURVE SMOOTH",
"354 -18 OFFCURVE",
"480 48 OFFCURVE",
"499 213 CURVE SMOOTH",
"517 367 OFFCURVE",
"411 450 OFFCURVE",
"301 450 CURVE SMOOTH",
"246 450 OFFCURVE",
"203 434 OFFCURVE",
"166 400 CURVE",
"229 587 LINE",
"543 587 LINE",
"561 668 LINE",
"176 668 LINE",
"63 329 LINE",
"141 305 LINE",
"164 346 OFFCURVE",
"214 381 OFFCURVE",
"285 377 CURVE SMOOTH",
"365 372 OFFCURVE",
"416 324 OFFCURVE",
"409 220 CURVE SMOOTH",
"402 121 OFFCURVE",
"339 57 OFFCURVE",
"242 60 CURVE",
"177 63 OFFCURVE",
"129 98 OFFCURVE",
"108 177 CURVE"
);
}
);
width = 575;
}
);
unicode = 0035;
},
{
color = (255,153,254,255);
glyphname = six;
layers = (
{
layerId = "678C5AFE-F8DA-443A-BB17-9B03ED7099AB";
paths = (
{
closed = 1;
nodes = (
"553 573 LINE",
"531 633 OFFCURVE",
"472 680 OFFCURVE",
"372 680 CURVE SMOOTH",
"186 680 OFFCURVE",
"90 502 OFFCURVE",
"67 311 CURVE SMOOTH",
"43 114 OFFCURVE",
"111 -12 OFFCURVE",
"281 -12 CURVE SMOOTH",
"436 -12 OFFCURVE",
"524 93 OFFCURVE",
"533 219 CURVE SMOOTH",
"543 352 OFFCURVE",
"460 445 OFFCURVE",
"336 445 CURVE SMOOTH",
"257 445 OFFCURVE",
"197 410 OFFCURVE",
"164 361 CURVE",
"191 514 OFFCURVE",
"261 610 OFFCURVE",
"363 610 CURVE SMOOTH",
"417 610 OFFCURVE",
"450 587 OFFCURVE",
"465 548 CURVE"
);
},
{
closed = 1;
nodes = (
"196 58 OFFCURVE",
"142 135 OFFCURVE",
"152 227 CURVE SMOOTH",
"161 313 OFFCURVE",
"223 370 OFFCURVE",
"310 370 CURVE SMOOTH",
"399 370 OFFCURVE",
"450 307 OFFCURVE",
"443 215 CURVE SMOOTH",
"436 123 OFFCURVE",
"372 58 OFFCURVE",
"284 58 CURVE SMOOTH"
);
}
);
width = 605;
}
);
unicode = 0036;
},
{
color = (255,153,254,255);
glyphname = seven;
layers = (
{
layerId = "678C5AFE-F8DA-443A-BB17-9B03ED7099AB";
paths = (
{
closed = 1;
nodes = (
"31 0 LINE",
"139 0 LINE",
"550 587 LINE",
"567 668 LINE",
"96 668 LINE",
"78 587 LINE",
"445 587 LINE"
);
}
);
width = 537;
}
);
unicode = 0037;
},
{
color = (255,153,254,255);
glyphname = eight;
layers = (
{
layerId = "678C5AFE-F8DA-443A-BB17-9B03ED7099AB";
paths = (
{
closed = 1;
nodes = (
"104 336 OFFCURVE",
"48 275 OFFCURVE",
"39 188 CURVE SMOOTH",
"26 60 OFFCURVE",
"126 -12 OFFCURVE",
"266 -12 CURVE SMOOTH",
"405 -12 OFFCURVE",
"520 60 OFFCURVE",
"533 188 CURVE",
"543 275 OFFCURVE",
"500 336 OFFCURVE",
"429 365 CURVE",
"468 398 OFFCURVE",
"495 446 OFFCURVE",
"500 498 CURVE SMOOTH",
"510 598 OFFCURVE",
"438 680 OFFCURVE",
"338 680 CURVE SMOOTH",
"238 680 OFFCURVE",
"148 598 OFFCURVE",
"138 498 CURVE SMOOTH",
"133 446 OFFCURVE",
"149 398 OFFCURVE",
"181 365 CURVE"
);
},
{
closed = 1;
nodes = (
"248 391 OFFCURVE",
"206 439 OFFCURVE",
"212 498 CURVE SMOOTH",
"218 558 OFFCURVE",
"271 605 OFFCURVE",
"329 605 CURVE SMOOTH",
"389 605 OFFCURVE",
"432 558 OFFCURVE",
"426 498 CURVE SMOOTH",
"420 439 OFFCURVE",
"366 391 OFFCURVE",
"307 391 CURVE SMOOTH"
);
},
{
closed = 1;
nodes = (
"138 267 OFFCURVE",
"205 317 OFFCURVE",
"299 317 CURVE SMOOTH",
"395 317 OFFCURVE",
"451 267 OFFCURVE",
"443 188 CURVE SMOOTH",
"435 110 OFFCURVE",
"368 63 OFFCURVE",
"274 63 CURVE SMOOTH",
"178 63 OFFCURVE",
"122 110 OFFCURVE",
"130 188 CURVE SMOOTH"
);
}
);
width = 617;
}
);
unicode = 0038;
},
{
color = (255,153,254,255);
glyphname = nine;
layers = (
{
layerId = "678C5AFE-F8DA-443A-BB17-9B03ED7099AB";
paths = (
{
closed = 1;
nodes = (
"151 0 LINE",
"267 0 LINE",
"267 0 OFFCURVE",
"453 217 OFFCURVE",
"531 335 CURVE SMOOTH",
"618 466 OFFCURVE",
"560 603 OFFCURVE",
"464 655 CURVE SMOOTH",
"363 710 OFFCURVE",
"201 674 OFFCURVE",
"131 554 CURVE SMOOTH",
"36 392 OFFCURVE",
"120 188 OFFCURVE",
"335 211 CURVE"
);
},
{
closed = 1;
nodes = (
"228 288 OFFCURVE",
"171 355 OFFCURVE",
"180 440 CURVE SMOOTH",
"190 533 OFFCURVE",
"265 594 OFFCURVE",
"347 596 CURVE SMOOTH",
"455 599 OFFCURVE",
"496 512 OFFCURVE",
"485 446 CURVE SMOOTH",
"469 352 OFFCURVE",
"396 288 OFFCURVE",
"312 288 CURVE SMOOTH"
);
}
);
width = 601;
}
);
unicode = 0039;
},
{
color = (255,153,254,255);
glyphname = A;
layers = (
{
layerId = "678C5AFE-F8DA-443A-BB17-9B03ED7099AB";
paths = (
{
closed = 1;
nodes = (
"-52 0 LINE",
"56 0 LINE",
"139 146 LINE",
"441 146 LINE",
"462 0 LINE",
"565 0 LINE",
"456 668 LINE",
"340 668 LINE"
);
},
{
closed = 1;
nodes = (
"184 226 LINE",
"381 573 LINE",
"430 226 LINE"
);
}
);
width = 627;
}
);
leftKerningGroup = A1;
rightKerningGroup = A_2;
unicode = 0041;
},
{
color = (255,153,254,255);
glyphname = B;
lastChange = "2021-04-20 16:20:30 +0000";
layers = (
{
layerId = "678C5AFE-F8DA-443A-BB17-9B03ED7099AB";
paths = (
{
closed = 1;
nodes = (
"14 0 LINE",
"300 0 LINE SMOOTH",
"590 0 OFFCURVE",
"640 293 OFFCURVE",
"490 352 CURVE",
"655 431 OFFCURVE",
"653 668 OFFCURVE",
"407 668 CURVE SMOOTH",
"156 668 LINE"
);
},
{
closed = 1;
nodes = (
"192 382 LINE",
"235 588 LINE",
"400 588 LINE SMOOTH",
"554 588 OFFCURVE",
"532 382 OFFCURVE",
"364 382 CURVE SMOOTH"
);
},
{
closed = 1;
nodes = (
"127 79 LINE",
"176 308 LINE",
"348 308 LINE SMOOTH",
"536 308 OFFCURVE",
"489 79 OFFCURVE",
"308 79 CURVE SMOOTH"
);
}
);
width = 625;
}
);
leftKerningGroup = B;
leftMetricsKey = H;
rightMetricsKey = "=H/2";
unicode = 0042;
},
{
color = (255,153,254,255);
glyphname = C;
lastChange = "2021-04-20 16:20:30 +0000";
layers = (
{
layerId = "678C5AFE-F8DA-443A-BB17-9B03ED7099AB";
paths = (
{
closed = 1;
nodes = (
"516 171 LINE",
"468 99 OFFCURVE",
"412 67 OFFCURVE",
"325 67 CURVE SMOOTH",
"200 67 OFFCURVE",
"127 182 OFFCURVE",
"155 336 CURVE SMOOTH",
"184 498 OFFCURVE",
"284 600 OFFCURVE",
"411 600 CURVE SMOOTH",
"487 600 OFFCURVE",
"544 565 OFFCURVE",
"566 498 CURVE",
"655 528 LINE",
"623 631 OFFCURVE",
"537 680 OFFCURVE",
"421 680 CURVE SMOOTH",
"229 680 OFFCURVE",
"93 534 OFFCURVE",
"59 336 CURVE SMOOTH",
"31 175 OFFCURVE",
"91 -12 OFFCURVE",
"315 -12 CURVE SMOOTH",
"433 -12 OFFCURVE",
"532 39 OFFCURVE",
"595 140 CURVE"
);
}
);
width = 661;
}
);
leftKerningGroup = C;
leftMetricsKey = O;
rightKerningGroup = C_2;
rightMetricsKey = "=H/2";
unicode = 0043;
},
{
color = (255,153,254,255);
glyphname = D;
layers = (
{
layerId = "678C5AFE-F8DA-443A-BB17-9B03ED7099AB";
paths = (
{
closed = 1;
nodes = (
"14 0 LINE",
"199 0 LINE SMOOTH",
"427 0 OFFCURVE",
"595 104 OFFCURVE",
"631 319 CURVE SMOOTH",
"674 575 OFFCURVE",
"552 668 OFFCURVE",
"340 668 CURVE SMOOTH",
"156 668 LINE"
);
},
{
closed = 1;
nodes = (
"127 79 LINE",
"235 588 LINE",
"320 588 LINE SMOOTH",
"459 588 OFFCURVE",
"575 551 OFFCURVE",
"536 325 CURVE SMOOTH",
"505 143 OFFCURVE",
"376 79 OFFCURVE",
"213 79 CURVE SMOOTH"
);
}
);
width = 676;
}
);
leftKerningGroup = B;
leftMetricsKey = H;
rightKerningGroup = D;
rightMetricsKey = O;
unicode = 0044;
},
{
color = (255,153,254,255);
glyphname = E;
lastChange = "2021-04-20 16:20:30 +0000";
layers = (
{
layerId = "678C5AFE-F8DA-443A-BB17-9B03ED7099AB";
paths = (
{
closed = 1;
nodes = (
"14 0 LINE",
"469 0 LINE",
"486 81 LINE",
"127 81 LINE",
"175 304 LINE",
"439 304 LINE",
"457 384 LINE",
"192 384 LINE",
"235 587 LINE",
"594 587 LINE",
"611 668 LINE",
"156 668 LINE"
);
}
);
width = 565;
}
);
leftKerningGroup = B;
leftMetricsKey = H;
rightKerningGroup = E;
rightMetricsKey = "=H/2";
unicode = 0045;
},
{
color = (255,153,254,255);
glyphname = F;
lastChange = "2021-04-20 16:20:30 +0000";
layers = (
{
layerId = "678C5AFE-F8DA-443A-BB17-9B03ED7099AB";
paths = (
{
closed = 1;
nodes = (
"14 0 LINE",
"110 0 LINE",
"175 304 LINE",
"514 304 LINE",
"531 384 LINE",
"192 384 LINE",
"235 587 LINE",
"574 587 LINE",
"592 668 LINE",
"156 668 LINE"
);
}
);
width = 546;
}
);
leftKerningGroup = B;
leftMetricsKey = H;
rightMetricsKey = "=H/2";
unicode = 0046;
},
{
color = (255,153,254,255);
glyphname = G;
layers = (
{
layerId = "678C5AFE-F8DA-443A-BB17-9B03ED7099AB";
paths = (
{
closed = 1;
nodes = (
"352 264 LINE",
"548 264 LINE",
"543 243 LINE SMOOTH",
"510 106 OFFCURVE",
"418 63 OFFCURVE",
"318 67 CURVE SMOOTH",
"207 71 OFFCURVE",
"129 170 OFFCURVE",
"156 336 CURVE SMOOTH",
"183 502 OFFCURVE",
"289 600 OFFCURVE",
"412 600 CURVE SMOOTH",
"504 600 OFFCURVE",
"553 549 OFFCURVE",
"567 498 CURVE",
"656 528 LINE",
"626 629 OFFCURVE",
"543 680 OFFCURVE",
"419 680 CURVE SMOOTH",
"226 680 OFFCURVE",
"88 527 OFFCURVE",
"60 336 CURVE SMOOTH",
"31 135 OFFCURVE",
"123 -12 OFFCURVE",
"301 -12 CURVE SMOOTH",
"391 -12 OFFCURVE",
"463 18 OFFCURVE",
"520 82 CURVE",
"526 0 LINE",
"582 0 LINE",
"656 344 LINE",
"369 344 LINE"
);
}
);
width = 713;
}
);
leftKerningGroup = C;
leftMetricsKey = O;
unicode = 0047;
},
{
color = (255,153,254,255);
glyphname = H;
layers = (
{
guideLines = (
{
position = "{0, 224}";
showMeasurement = 1;
}
);
layerId = "678C5AFE-F8DA-443A-BB17-9B03ED7099AB";
paths = (
{
closed = 1;
nodes = (
"14 0 LINE",
"110 0 LINE",
"175 304 LINE",
"524 304 LINE",
"460 0 LINE",
"556 0 LINE",
"698 668 LINE",
"602 668 LINE",
"542 384 LINE",
"192 384 LINE",
"252 668 LINE",
"156 668 LINE"
);
}
);
width = 694;
}
);
leftKerningGroup = B;
rightKerningGroup = H;
unicode = 0048;
},
{
color = (255,153,254,255);
glyphname = I;
layers = (
{
layerId = "678C5AFE-F8DA-443A-BB17-9B03ED7099AB";
paths = (
{
closed = 1;
nodes = (
"4 0 LINE",
"285 0 LINE",
"301 75 LINE",
"209 75 LINE",
"318 593 LINE",
"412 593 LINE",
"427 668 LINE",
"146 668 LINE",
"130 593 LINE",
"223 593 LINE",
"113 75 LINE",
"20 75 LINE"
);
}
);
width = 414;
}
);
rightKerningGroup = I;
unicode = 0049;
},
{
color = (255,153,254,255);
glyphname = J;
layers = (
{
layerId = "678C5AFE-F8DA-443A-BB17-9B03ED7099AB";
paths = (
{
closed = 1;
nodes = (
"-7 190 LINE",
"-22 49 OFFCURVE",
"65 -12 OFFCURVE",
"163 -12 CURVE SMOOTH",
"245 -12 OFFCURVE",
"370 -5 OFFCURVE",
"416 212 CURVE SMOOTH",
"513 668 LINE",
"417 668 LINE",
"320 213 LINE SMOOTH",
"294 93 OFFCURVE",
"239 65 OFFCURVE",
"175 65 CURVE SMOOTH",
"94 65 OFFCURVE",
"66 120 OFFCURVE",
"83 214 CURVE"
);
}
);
width = 509;
}
);
rightMetricsKey = H;
unicode = 004A;
},
{
color = (255,153,254,255);
glyphname = K;
lastChange = "2021-04-20 16:20:30 +0000";
layers = (
{
layerId = "678C5AFE-F8DA-443A-BB17-9B03ED7099AB";
paths = (
{
closed = 1;
nodes = (
"14 0 LINE",
"110 0 LINE",
"155 210 LINE",
"281 324 LINE",
"446 0 LINE",
"551 0 LINE",
"351 385 LINE",
"670 668 LINE",
"540 668 LINE",
"183 345 LINE",
"252 668 LINE",
"156 668 LINE"
);
}
);
width = 623;
}
);
leftKerningGroup = B;
leftMetricsKey = H;
rightMetricsKey = V;
unicode = 004B;
},
{
color = (255,153,254,255);
glyphname = L;
layers = (
{
layerId = "678C5AFE-F8DA-443A-BB17-9B03ED7099AB";
paths = (
{
closed = 1;
nodes = (
"14 0 LINE",
"469 0 LINE",
"486 81 LINE",
"127 81 LINE",
"252 668 LINE",
"156 668 LINE"
);
}
);
width = 541;
}
);
leftKerningGroup = B;
leftMetricsKey = H;
rightKerningGroup = L;
unicode = 004C;
},
{
color = (255,153,254,255);
glyphname = M;
layers = (
{
layerId = "678C5AFE-F8DA-443A-BB17-9B03ED7099AB";
paths = (
{
closed = 1;
nodes = (
"14 0 LINE",
"110 0 LINE",
"233 575 LINE",
"305 0 LINE",
"400 0 LINE",
"709 559 LINE",
"590 0 LINE",
"686 0 LINE",
"828 668 LINE",
"666 668 LINE",
"374 126 LINE",
"312 668 LINE",
"156 668 LINE"
);
}
);
width = 824;
}
);
leftKerningGroup = B;
leftMetricsKey = H;
rightKerningGroup = H;
rightMetricsKey = H;
unicode = 004D;
},
{
color = (255,153,254,255);
glyphname = N;
layers = (
{
layerId = "678C5AFE-F8DA-443A-BB17-9B03ED7099AB";
paths = (
{
closed = 1;
nodes = (
"14 0 LINE",
"110 0 LINE",
"233 576 LINE",
"418 0 LINE",
"555 0 LINE",
"697 668 LINE",
"601 668 LINE",
"479 94 LINE",
"293 668 LINE",
"156 668 LINE"
);
}
);
width = 693;
}
);
leftKerningGroup = B;
leftMetricsKey = H;
rightKerningGroup = H;
rightMetricsKey = H;
unicode = 004E;
},
{
color = (255,153,254,255);
glyphname = O;
layers = (
{
layerId = "678C5AFE-F8DA-443A-BB17-9B03ED7099AB";
paths = (
{
closed = 1;
nodes = (
"543 -12 OFFCURVE",
"658 161 OFFCURVE",
"686 335 CURVE SMOOTH",
"716 523 OFFCURVE",
"619 680 OFFCURVE",
"433 680 CURVE SMOOTH",
"223 680 OFFCURVE",
"90 535 OFFCURVE",
"60 335 CURVE SMOOTH",
"31 141 OFFCURVE",
"127 -12 OFFCURVE",
"312 -12 CURVE SMOOTH"
);
},
{
closed = 1;
nodes = (
"212 67 OFFCURVE",
"127 161 OFFCURVE",
"156 335 CURVE SMOOTH",
"181 484 OFFCURVE",
"269 600 OFFCURVE",
"420 600 CURVE SMOOTH",
"533 600 OFFCURVE",
"619 505 OFFCURVE",
"590 335 CURVE SMOOTH",
"561 167 OFFCURVE",
"460 67 OFFCURVE",
"325 67 CURVE SMOOTH"
);
}
);
width = 728;
}
);
leftKerningGroup = C;
rightKerningGroup = D;
unicode = 004F;
},
{
color = (255,153,254,255);
glyphname = P;
lastChange = "2021-04-20 16:20:30 +0000";
layers = (
{
layerId = "678C5AFE-F8DA-443A-BB17-9B03ED7099AB";
paths = (
{
closed = 1;
nodes = (
"14 0 LINE",
"110 0 LINE",
"166 265 LINE",
"287 265 LINE SMOOTH",
"497 265 OFFCURVE",
"587 334 OFFCURVE",
"600 473 CURVE SMOOTH",
"616 647 OFFCURVE",
"463 668 OFFCURVE",
"342 668 CURVE SMOOTH",
"156 668 LINE"
);
},
{
closed = 1;
nodes = (
"184 346 LINE",
"235 588 LINE",
"351 588 LINE SMOOTH",
"454 588 OFFCURVE",
"516 563 OFFCURVE",
"500 457 CURVE SMOOTH",
"487 373 OFFCURVE",
"417 346 OFFCURVE",
"311 346 CURVE SMOOTH"
);
}
);
width = 597;
}
);
leftKerningGroup = B;
leftMetricsKey = H;
rightMetricsKey = "=H/2";
unicode = 0050;
},
{
color = (255,153,254,255);
glyphname = Q;
layers = (
{
layerId = "678C5AFE-F8DA-443A-BB17-9B03ED7099AB";
paths = (
{
closed = 1;
nodes = (
"617 -55 LINE",
"687 7 LINE",
"588 123 LINE",
"643 187 OFFCURVE",
"676 269 OFFCURVE",
"689 351 CURVE SMOOTH",
"719 540 OFFCURVE",
"622 696 OFFCURVE",
"436 696 CURVE SMOOTH",
"226 696 OFFCURVE",
"93 552 OFFCURVE",
"63 351 CURVE SMOOTH",
"34 158 OFFCURVE",
"130 5 OFFCURVE",
"315 5 CURVE SMOOTH",
"397 5 OFFCURVE",
"464 26 OFFCURVE",
"517 62 CURVE"
);
},
{
closed = 1;
nodes = (
"328 284 LINE",
"464 124 LINE",
"425 98 OFFCURVE",
"379 84 OFFCURVE",
"328 84 CURVE SMOOTH",
"215 84 OFFCURVE",
"130 178 OFFCURVE",
"159 351 CURVE SMOOTH",
"184 500 OFFCURVE",
"272 617 OFFCURVE",
"423 617 CURVE SMOOTH",
"536 617 OFFCURVE",
"622 522 OFFCURVE",
"593 351 CURVE",
"583 287 OFFCURVE",
"561 233 OFFCURVE",
"531 190 CURVE",
"399 344 LINE"
);
}
);
width = 748;
}
);
leftKerningGroup = C;
leftMetricsKey = O;
unicode = 0051;
},
{
color = (255,153,254,255);
glyphname = R;
layers = (
{
layerId = "678C5AFE-F8DA-443A-BB17-9B03ED7099AB";
paths = (
{
closed = 1;
nodes = (
"14 0 LINE",
"110 0 LINE",
"170 281 LINE",
"270 281 LINE",
"413 0 LINE",
"518 0 LINE",
"371 288 LINE",
"538 303 OFFCURVE",
"590 394 OFFCURVE",
"599 475 CURVE",
"617 621 OFFCURVE",
"518 668 OFFCURVE",
"360 668 CURVE SMOOTH",
"156 668 LINE"
);
},
{
closed = 1;
nodes = (
"187 360 LINE",
"235 588 LINE",
"352 588 LINE SMOOTH",
"453 588 OFFCURVE",
"514 565 OFFCURVE",
"502 473 CURVE SMOOTH",
"490 378 OFFCURVE",
"414 360 OFFCURVE",
"311 360 CURVE SMOOTH"
);
}
);
width = 610;
}
);
leftKerningGroup = B;
leftMetricsKey = H;
rightKerningGroup = R;
unicode = 0052;
},
{
color = (255,153,254,255);
glyphname = S;
layers = (
{
layerId = "678C5AFE-F8DA-443A-BB17-9B03ED7099AB";
paths = (
{
closed = 1;
nodes = (
"36 147 LINE",
"118 -96 OFFCURVE",
"544 -46 OFFCURVE",
"544 197 CURVE SMOOTH",
"544 423 OFFCURVE",
"171 342 OFFCURVE",
"182 505 CURVE SMOOTH",
"190 629 OFFCURVE",
"418 629 OFFCURVE",
"469 529 CURVE",
"561 555 LINE",
"475 740 OFFCURVE",
"87 720 OFFCURVE",
"87 495 CURVE SMOOTH",
"87 259 OFFCURVE",
"446 350 OFFCURVE",
"446 184 CURVE SMOOTH",
"446 42 OFFCURVE",
"179 20 OFFCURVE",
"127 172 CURVE"
);
}
);
width = 609;
}
);
leftKerningGroup = S;
rightKerningGroup = S_2;
unicode = 0053;
},
{
color = (255,153,254,255);
glyphname = T;
layers = (
{
layerId = "678C5AFE-F8DA-443A-BB17-9B03ED7099AB";
paths = (
{
closed = 1;
nodes = (
"169 0 LINE",
"266 0 LINE",
"389 587 LINE",
"611 587 LINE",
"628 668 LINE",
"90 668 LINE",
"73 587 LINE",
"293 587 LINE"
);
}
);
width = 558;
}
);
leftKerningGroup = T;
rightKerningGroup = T;
unicode = 0054;
},
{
color = (255,153,254,255);
glyphname = U;
layers = (
{
layerId = "678C5AFE-F8DA-443A-BB17-9B03ED7099AB";
paths = (
{
closed = 1;
nodes = (
"157 668 LINE",
"74 280 LINE SMOOTH",
"30 76 OFFCURVE",
"101 -12 OFFCURVE",
"286 -12 CURVE SMOOTH",
"412 -12 OFFCURVE",
"558 12 OFFCURVE",
"614 280 CURVE",
"697 668 LINE",
"601 668 LINE",
"516 272 LINE SMOOTH",
"482 115 OFFCURVE",
"412 69 OFFCURVE",
"291 69 CURVE SMOOTH",
"169 69 OFFCURVE",
"140 131 OFFCURVE",
"169 272 CURVE",
"253 668 LINE"
);
}
);
width = 693;
}
);
leftMetricsKey = H;
rightKerningGroup = U_2;
rightMetricsKey = H;
unicode = 0055;
},
{
color = (255,153,254,255);
glyphname = V;
layers = (
{
layerId = "678C5AFE-F8DA-443A-BB17-9B03ED7099AB";
paths = (
{
closed = 1;
nodes = (
"178 0 LINE",
"290 0 LINE",
"662 668 LINE",
"551 668 LINE",
"251 110 LINE",
"189 668 LINE",
"90 668 LINE"
);
}
);
width = 592;
}
);
unicode = 0056;
},
{
color = (255,153,254,255);
glyphname = W;
layers = (
{
layerId = "678C5AFE-F8DA-443A-BB17-9B03ED7099AB";
paths = (
{
closed = 1;
nodes = (
"116 0 LINE",
"227 0 LINE",
"472 551 LINE",
"483 0 LINE",
"604 0 LINE",
"914 668 LINE",
"804 668 LINE",
"554 117 LINE",
"549 668 LINE",
"436 668 LINE",
"202 128 LINE",
"190 668 LINE",
"90 668 LINE"
);
}
);
width = 844;
}
);
leftMetricsKey = V;
rightMetricsKey = V;
unicode = 0057;
},
{
color = (255,153,254,255);
glyphname = X;
lastChange = "2021-04-20 16:20:30 +0000";
layers = (
{
layerId = "678C5AFE-F8DA-443A-BB17-9B03ED7099AB";
paths = (
{
closed = 1;
nodes = (
"-52 0 LINE",
"73 0 LINE",
"317 264 LINE",
"449 0 LINE",
"552 0 LINE",
"383 336 LINE",
"691 668 LINE",
"566 668 LINE",
"339 423 LINE",
"218 668 LINE",
"116 668 LINE",
"274 351 LINE"
);
}
);
width = 624;
}
);
leftMetricsKey = V;
rightMetricsKey = V;
unicode = 0058;
},
{
color = (255,153,254,255);
glyphname = Y;
layers = (
{
layerId = "678C5AFE-F8DA-443A-BB17-9B03ED7099AB";
paths = (
{
closed = 1;
nodes = (
"177 0 LINE",
"274 0 LINE",
"325 240 LINE",
"668 668 LINE",
"554 668 LINE",
"290 331 LINE",
"186 668 LINE",
"90 668 LINE",
"229 240 LINE"
);
}
);
width = 598;
}
);
leftKerningGroup = Y;
leftMetricsKey = V;
rightKerningGroup = Y_2;
rightMetricsKey = V;
unicode = 0059;
},
{
color = (255,153,254,255);
glyphname = Z;
layers = (
{
layerId = "678C5AFE-F8DA-443A-BB17-9B03ED7099AB";
paths = (
{
closed = 1;
nodes = (
"-18 0 LINE",
"506 0 LINE",
"524 81 LINE",
"123 81 LINE",
"623 587 LINE",
"640 668 LINE",
"145 668 LINE",
"128 587 LINE",
"500 587 LINE",
"-1 81 LINE"
);
}
);
width = 613;
}
);
leftKerningGroup = Z;
rightKerningGroup = Z_2;
unicode = 005A;
},
{
color = (255,153,254,255);
glyphname = a;
layers = (
{
layerId = "678C5AFE-F8DA-443A-BB17-9B03ED7099AB";
paths = (
{
closed = 1;
nodes = (
"329 0 LINE",
"408 0 LINE",
"409 47 OFFCURVE",
"414 105 OFFCURVE",
"431 188 CURVE SMOOTH",
"455 302 LINE SMOOTH",
"484 439 OFFCURVE",
"419 504 OFFCURVE",
"281 504 CURVE SMOOTH",
"185 504 OFFCURVE",
"117 457 OFFCURVE",
"83 382 CURVE",
"158 359 LINE",
"180 407 OFFCURVE",
"224 436 OFFCURVE",
"285 436 CURVE SMOOTH",
"365 436 OFFCURVE",
"390 391 OFFCURVE",
"370 308 CURVE",
"256 296 OFFCURVE",
"5 284 OFFCURVE",
"5 117 CURVE SMOOTH",
"5 38 OFFCURVE",
"69 -12 OFFCURVE",
"154 -12 CURVE SMOOTH",
"232 -12 OFFCURVE",
"281 13 OFFCURVE",
"325 63 CURVE"
);
},
{
closed = 1;
nodes = (
"359 224 LINE SMOOTH",
"341 122 OFFCURVE",
"271 57 OFFCURVE",
"181 57 CURVE SMOOTH",
"130 57 OFFCURVE",
"92 84 OFFCURVE",
"100 139 CURVE SMOOTH",
"111 213 OFFCURVE",
"206 226 OFFCURVE",
"362 241 CURVE"
);
}
);
width = 521;
}
);
leftKerningGroup = a;
leftMetricsKey = o;
unicode = 0061;
},
{
color = (255,153,254,255);
glyphname = b;
lastChange = "2021-04-20 16:20:30 +0000";
layers = (
{
layerId = "678C5AFE-F8DA-443A-BB17-9B03ED7099AB";
paths = (
{
closed = 1;
nodes = (
"7 0 LINE",
"71 0 LINE",
"112 82 LINE",
"143 24 OFFCURVE",
"191 -12 OFFCURVE",
"266 -12 CURVE SMOOTH",
"426 -12 OFFCURVE",
"509 150 OFFCURVE",
"509 293 CURVE SMOOTH",
"509 397 OFFCURVE",
"465 504 OFFCURVE",
"324 504 CURVE SMOOTH",
"281 504 OFFCURVE",
"229 488 OFFCURVE",
"184 430 CURVE",
"235 668 LINE",
"149 668 LINE"
);
},
{
closed = 1;
nodes = (
"176 60 OFFCURVE",
"138 133 OFFCURVE",
"138 211 CURVE SMOOTH",
"138 308 OFFCURVE",
"197 432 OFFCURVE",
"307 432 CURVE SMOOTH",
"384 432 OFFCURVE",
"419 373 OFFCURVE",
"419 291 CURVE SMOOTH",
"419 196 OFFCURVE",
"371 60 OFFCURVE",
"257 60 CURVE SMOOTH"
);
}
);
width = 555;
}
);
leftMetricsKey = n;
rightKerningGroup = b;
rightMetricsKey = o;
unicode = 0062;
},
{
color = (255,153,254,255);
glyphname = c;
layers = (
{
layerId = "678C5AFE-F8DA-443A-BB17-9B03ED7099AB";
paths = (
{
closed = 1;
nodes = (
"364 127 LINE",
"334 87 OFFCURVE",
"294 62 OFFCURVE",
"240 62 CURVE SMOOTH",
"129 62 OFFCURVE",
"105 150 OFFCURVE",
"121 249 CURVE SMOOTH",
"135 337 OFFCURVE",
"185 430 OFFCURVE",
"293 430 CURVE SMOOTH",
"344 430 OFFCURVE",
"386 404 OFFCURVE",
"399 364 CURVE",
"482 393 LINE",
"449 465 OFFCURVE",
"387 504 OFFCURVE",
"297 504 CURVE SMOOTH",
"151 504 OFFCURVE",
"53 395 OFFCURVE",
"30 248 CURVE SMOOTH",
"6 92 OFFCURVE",
"79 -12 OFFCURVE",
"221 -12 CURVE SMOOTH",
"310 -12 OFFCURVE",
"390 25 OFFCURVE",
"435 99 CURVE"
);
}
);
width = 494;
}
);
leftKerningGroup = c;
leftMetricsKey = o;
rightKerningGroup = c_2;
unicode = 0063;
},
{
color = (255,153,254,255);
glyphname = d;
layers = (
{
layerId = "678C5AFE-F8DA-443A-BB17-9B03ED7099AB";
paths = (
{
closed = 1;
nodes = (
"361 0 LINE",
"442 0 LINE",
"443 87 OFFCURVE",
"458 154 OFFCURVE",
"465 188 CURVE SMOOTH",
"490 308 OFFCURVE",
"567 668 OFFCURVE",
"567 668 CURVE",
"481 668 LINE",
"424 398 LINE",
"405 458 OFFCURVE",
"350 504 OFFCURVE",
"271 504 CURVE SMOOTH",
"148 504 OFFCURVE",
"52 407 OFFCURVE",
"30 247 CURVE",
"11 100 OFFCURVE",
"77 -12 OFFCURVE",
"205 -12 CURVE SMOOTH",
"278 -12 OFFCURVE",
"322 18 OFFCURVE",
"356 61 CURVE"
);
},
{
closed = 1;
nodes = (
"158 60 OFFCURVE",
"101 121 OFFCURVE",
"121 247 CURVE SMOOTH",
"137 347 OFFCURVE",
"189 432 OFFCURVE",
"280 432 CURVE SMOOTH",
"366 432 OFFCURVE",
"407 358 OFFCURVE",
"396 247 CURVE SMOOTH",
"388 165 OFFCURVE",
"333 60 OFFCURVE",
"226 60 CURVE SMOOTH"
);
}
);
width = 555;
}
);
leftKerningGroup = c;
leftMetricsKey = o;
rightMetricsKey = a;
unicode = 0064;
},
{
color = (255,153,254,255);
glyphname = e;
layers = (
{
layerId = "678C5AFE-F8DA-443A-BB17-9B03ED7099AB";
paths = (
{
closed = 1;
nodes = (
"370 111 LINE",
"342 81 OFFCURVE",
"303 62 OFFCURVE",
"247 62 CURVE SMOOTH",
"176 62 OFFCURVE",
"102 100 OFFCURVE",
"115 225 CURVE",
"499 225 LINE",
"534 372 OFFCURVE",
"469 504 OFFCURVE",
"308 504 CURVE SMOOTH",
"162 504 OFFCURVE",
"53 412 OFFCURVE",
"30 248 CURVE SMOOTH",
"8 90 OFFCURVE",
"90 -12 OFFCURVE",
"237 -12 CURVE SMOOTH",
"333 -12 OFFCURVE",
"402 28 OFFCURVE",
"448 87 CURVE"
);
},
{
closed = 1;
nodes = (
"127 293 LINE",
"146 382 OFFCURVE",
"222 432 OFFCURVE",
"296 432 CURVE SMOOTH",
"394 432 OFFCURVE",
"427 358 OFFCURVE",
"420 293 CURVE"
);
}
);
width = 541;
}
);
leftKerningGroup = c;
leftMetricsKey = o;
rightKerningGroup = e;
unicode = 0065;
},
{
color = (255,153,254,255);
glyphname = f;
layers = (
{
layerId = "678C5AFE-F8DA-443A-BB17-9B03ED7099AB";
paths = (
{
closed = 1;
nodes = (
"37 0 LINE",
"123 0 LINE",
"214 428 LINE",
"315 428 LINE",
"330 496 LINE",
"228 496 LINE",
"243 563 LINE SMOOTH",
"258 631 OFFCURVE",
"286 635 OFFCURVE",
"335 635 CURVE SMOOTH",
"342 635 OFFCURVE",
"359 635 OFFCURVE",
"359 635 CURVE",
"374 706 LINE",
"222 706 OFFCURVE",
"190 706 OFFCURVE",
"154 549 CURVE SMOOTH",
"142 496 LINE",
"59 496 LINE",
"44 428 LINE",
"128 428 LINE"
);
}
);
width = 320;
}
);
rightKerningGroup = f;
unicode = 0066;
},
{
color = (255,153,254,255);
glyphname = g;
lastChange = "2021-04-20 16:20:30 +0000";
layers = (
{
layerId = "678C5AFE-F8DA-443A-BB17-9B03ED7099AB";
paths = (
{
closed = 1;
nodes = (
"-5 -78 LINE",
"19 -148 OFFCURVE",
"95 -190 OFFCURVE",
"179 -190 CURVE SMOOTH",
"397 -190 OFFCURVE",
"416 -28 OFFCURVE",
"432 47 CURVE SMOOTH",
"456 159 OFFCURVE",
"527 496 OFFCURVE",
"527 496 CURVE",
"465 496 LINE",
"425 418 LINE",
"362 551 OFFCURVE",
"65 558 OFFCURVE",
"33 258 CURVE SMOOTH",
"6 9 OFFCURVE",
"259 -44 OFFCURVE",
"354 80 CURVE",
"354 80 OFFCURVE",
"344 36 OFFCURVE",
"341 23 CURVE SMOOTH",
"323 -54 OFFCURVE",
"293 -113 OFFCURVE",
"193 -117 CURVE SMOOTH",
"128 -120 OFFCURVE",
"92 -86 OFFCURVE",
"85 -53 CURVE"
);
},
{
closed = 1;
nodes = (
"161 92 OFFCURVE",
"109 154 OFFCURVE",
"122 256 CURVE SMOOTH",
"136 367 OFFCURVE",
"193 432 OFFCURVE",
"275 432 CURVE SMOOTH",
"350 432 OFFCURVE",
"415 371 OFFCURVE",
"395 256 CURVE SMOOTH",
"378 159 OFFCURVE",
"324 86 OFFCURVE",
"242 89 CURVE SMOOTH"
);
}
);
width = 554;
}
);
leftKerningGroup = g;
leftMetricsKey = o;
unicode = 0067;
},
{
color = (255,153,254,255);
glyphname = h;
lastChange = "2021-04-20 16:20:30 +0000";
layers = (
{
layerId = "678C5AFE-F8DA-443A-BB17-9B03ED7099AB";
paths = (
{
closed = 1;
nodes = (
"7 0 LINE",
"93 0 LINE",
"147 257 LINE SMOOTH",
"174 387 OFFCURVE",
"246 430 OFFCURVE",
"318 430 CURVE SMOOTH",
"394 430 OFFCURVE",
"416 393 OFFCURVE",
"392 280 CURVE SMOOTH",
"333 0 LINE",
"418 0 LINE",
"480 288 LINE SMOOTH",
"512 435 OFFCURVE",
"460 504 OFFCURVE",
"355 504 CURVE SMOOTH",
"266 504 OFFCURVE",
"217 470 OFFCURVE",
"184 427 CURVE",
"235 668 LINE",
"149 668 LINE"
);
}
);
width = 549;
}
);
leftMetricsKey = n;
rightKerningGroup = h;
rightMetricsKey = n;
unicode = 0068;
},
{
color = (255,153,254,255);
glyphname = i;
layers = (
{
components = (
{
alignment = -1;
name = dotlessi;
}
);
layerId = "678C5AFE-F8DA-443A-BB17-9B03ED7099AB";
paths = (
{
closed = 1;
nodes = (
"264 591 OFFCURVE",
"292 619 OFFCURVE",
"292 653 CURVE SMOOTH",
"292 688 OFFCURVE",
"264 716 OFFCURVE",
"229 716 CURVE SMOOTH",
"195 716 OFFCURVE",
"167 688 OFFCURVE",
"167 653 CURVE SMOOTH",
"167 619 OFFCURVE",
"195 591 OFFCURVE",
"229 591 CURVE SMOOTH"
);
}
);
width = 270;
}
);
leftKerningGroup = i;
unicode = 0069;
},
{
color = (255,153,254,255);
glyphname = j;
layers = (
{
layerId = "678C5AFE-F8DA-443A-BB17-9B03ED7099AB";
paths = (
{
closed = 1;
nodes = (
"245 591 OFFCURVE",
"274 619 OFFCURVE",
"274 654 CURVE SMOOTH",
"274 689 OFFCURVE",
"245 717 OFFCURVE",
"211 717 CURVE SMOOTH",
"176 717 OFFCURVE",
"148 689 OFFCURVE",
"148 654 CURVE SMOOTH",
"148 619 OFFCURVE",
"176 591 OFFCURVE",
"211 591 CURVE SMOOTH"
);
},
{
closed = 1;
nodes = (
"-154 -159 LINE",
"61 -170 OFFCURVE",
"84 -139 OFFCURVE",
"115 8 CURVE SMOOTH",
"219 496 LINE",
"133 496 LINE",
"30 13 LINE SMOOTH",
"11 -77 OFFCURVE",
"-4 -89 OFFCURVE",
"-138 -86 CURVE"
);
}
);
width = 258;
}
);
unicode = 006A;
},
{
color = (255,153,254,255);
glyphname = k;
layers = (
{
layerId = "678C5AFE-F8DA-443A-BB17-9B03ED7099AB";
paths = (
{
closed = 1;
nodes = (
"7 0 LINE",
"93 0 LINE",
"128 166 LINE",
"202 232 LINE",
"321 0 LINE",
"415 0 LINE",
"266 289 LINE",
"500 496 LINE",
"388 496 LINE",
"153 285 LINE",
"235 668 LINE",
"149 668 LINE"
);
}
);
width = 487;
}
);
leftMetricsKey = n;
unicode = 006B;
},
{
color = (255,153,254,255);
glyphname = l;
layers = (
{
layerId = "678C5AFE-F8DA-443A-BB17-9B03ED7099AB";
paths = (
{
closed = 1;
nodes = (
"198 75 LINE",
"198 75 OFFCURVE",
"170 75 OFFCURVE",
"161 75 CURVE SMOOTH",
"112 75 OFFCURVE",
"114 94 OFFCURVE",
"123 140 CURVE",
"235 668 LINE",
"149 668 LINE",
"34 125 LINE",
"17 41 OFFCURVE",
"22 0 OFFCURVE",
"126 0 CURVE SMOOTH",
"140 0 OFFCURVE",
"182 0 OFFCURVE",
"182 0 CURVE"
);
}
);
width = 259;
}
);
leftMetricsKey = n;
unicode = 006C;
},
{
color = (255,153,254,255);
glyphname = m;
lastChange = "2021-04-20 16:20:30 +0000";
layers = (
{
layerId = "678C5AFE-F8DA-443A-BB17-9B03ED7099AB";
paths = (
{
closed = 1;
nodes = (
"8 0 LINE",
"94 0 LINE",
"151 270 LINE SMOOTH",
"175 380 OFFCURVE",
"239 431 OFFCURVE",
"313 431 CURVE SMOOTH",
"390 431 OFFCURVE",
"400 382 OFFCURVE",
"380 289 CURVE SMOOTH",
"319 0 LINE",
"405 0 LINE",
"462 270 LINE SMOOTH",
"484 371 OFFCURVE",
"541 431 OFFCURVE",
"625 431 CURVE SMOOTH",
"704 431 OFFCURVE",
"711 380 OFFCURVE",
"691 289 CURVE SMOOTH",
"630 0 LINE",
"716 0 LINE",
"779 300 LINE",
"822 499 OFFCURVE",
"692 504 OFFCURVE",
"651 504 CURVE SMOOTH",
"582 504 OFFCURVE",
"524 481 OFFCURVE",
"475 416 CURVE",
"456 470 OFFCURVE",
"420 504 OFFCURVE",
"341 504 CURVE SMOOTH",
"266 504 OFFCURVE",
"222 474 OFFCURVE",
"183 427 CURVE",
"177 496 LINE",
"113 496 LINE"
);
}
);
width = 846;
}
);
leftMetricsKey = n;
rightKerningGroup = h;
rightMetricsKey = n;
unicode = 006D;
},
{
color = (255,153,254,255);
glyphname = n;
layers = (
{
layerId = "678C5AFE-F8DA-443A-BB17-9B03ED7099AB";
paths = (
{
closed = 1;
nodes = (
"8 0 LINE",
"94 0 LINE",
"148 257 LINE SMOOTH",
"175 387 OFFCURVE",
"247 430 OFFCURVE",
"319 430 CURVE SMOOTH",
"395 430 OFFCURVE",
"417 392 OFFCURVE",
"393 279 CURVE SMOOTH",
"334 0 LINE",
"419 0 LINE",
"481 287 LINE SMOOTH",
"513 434 OFFCURVE",
"461 504 OFFCURVE",
"356 504 CURVE SMOOTH",
"267 504 OFFCURVE",
"216 470 OFFCURVE",
"183 427 CURVE",
"177 496 LINE",
"113 496 LINE"
);
}
);
width = 550;
}
);
leftKerningGroup = n;
rightKerningGroup = h;
unicode = 006E;
},
{
color = (255,153,254,255);
glyphname = o;
layers = (
{
layerId = "678C5AFE-F8DA-443A-BB17-9B03ED7099AB";
paths = (
{
closed = 1;
nodes = (
"406 -12 OFFCURVE",
"481 143 OFFCURVE",
"497 237 CURVE SMOOTH",
"528 421 OFFCURVE",
"419 504 OFFCURVE",
"303 504 CURVE SMOOTH",
"188 504 OFFCURVE",
"55 431 OFFCURVE",
"30 247 CURVE SMOOTH",
"10 98 OFFCURVE",
"80 -12 OFFCURVE",
"230 -12 CURVE SMOOTH"
);
},
{
closed = 1;
nodes = (
"142 62 OFFCURVE",
"100 139 OFFCURVE",
"119 247 CURVE SMOOTH",
"144 390 OFFCURVE",
"218 430 OFFCURVE",
"290 430 CURVE SMOOTH",
"371 430 OFFCURVE",
"430 387 OFFCURVE",
"408 247 CURVE SMOOTH",
"390 135 OFFCURVE",
"327 62 OFFCURVE",
"237 62 CURVE SMOOTH"
);
}
);
width = 547;
}
);
leftKerningGroup = c;
rightKerningGroup = b;
unicode = 006F;
},
{
color = (255,153,254,255);
glyphname = p;
layers = (
{
layerId = "678C5AFE-F8DA-443A-BB17-9B03ED7099AB";
paths = (
{
closed = 1;
nodes = (
"-26 -162 LINE",
"60 -162 LINE",
"114 93 LINE",
"137 28 OFFCURVE",
"190 -12 OFFCURVE",
"269 -12 CURVE SMOOTH",
"424 -12 OFFCURVE",
"501 136 OFFCURVE",
"509 272 CURVE SMOOTH",
"516 397 OFFCURVE",
"460 504 OFFCURVE",
"331 504 CURVE SMOOTH",
"256 504 OFFCURVE",
"208 468 OFFCURVE",
"182 430 CURVE",
"177 496 LINE",
"114 496 LINE"
);
},
{
closed = 1;
nodes = (
"173 59 OFFCURVE",
"127 146 OFFCURVE",
"142 246 CURVE",
"157 354 OFFCURVE",
"223 432 OFFCURVE",
"307 432 CURVE SMOOTH",
"392 432 OFFCURVE",
"436 359 OFFCURVE",
"415 243 CURVE",
"399 147 OFFCURVE",
"349 59 OFFCURVE",
"260 59 CURVE SMOOTH"
);
}
);
width = 556;
}
);
rightKerningGroup = b;
rightMetricsKey = o;
unicode = 0070;
},
{
color = (255,153,254,255);
glyphname = q;
layers = (
{
layerId = "678C5AFE-F8DA-443A-BB17-9B03ED7099AB";
paths = (
{
closed = 1;
nodes = (
"550 -76 LINE",
"435 -111 OFFCURVE",
"406 -85 OFFCURVE",
"420 -20 CURVE SMOOTH",
"428 19 OFFCURVE",
"529 496 OFFCURVE",
"529 496 CURVE",
"467 496 LINE",
"427 418 LINE",
"400 469 OFFCURVE",
"349 505 OFFCURVE",
"270 505 CURVE SMOOTH",
"129 505 OFFCURVE",
"46 380 OFFCURVE",
"30 246 CURVE SMOOTH",
"11 86 OFFCURVE",
"85 -12 OFFCURVE",
"206 -12 CURVE SMOOTH",
"274 -12 OFFCURVE",
"328 20 OFFCURVE",
"351 59 CURVE",
"351 59 OFFCURVE",
"337 -7 OFFCURVE",
"332 -31 CURVE SMOOTH",
"295 -208 OFFCURVE",
"494 -181 OFFCURVE",
"533 -154 CURVE"
);
},
{
closed = 1;
nodes = (
"142 60 OFFCURVE",
"105 134 OFFCURVE",
"121 246 CURVE SMOOTH",
"132 324 OFFCURVE",
"179 433 OFFCURVE",
"275 433 CURVE SMOOTH",
"356 433 OFFCURVE",
"405 364 OFFCURVE",
"393 247 CURVE SMOOTH",
"384 158 OFFCURVE",
"322 60 OFFCURVE",
"231 60 CURVE SMOOTH"
);
}
);
width = 554;
}
);
leftKerningGroup = c;
leftMetricsKey = o;
rightKerningGroup = q;
unicode = 0071;
},
{
color = (255,153,254,255);
glyphname = r;
layers = (
{
layerId = "678C5AFE-F8DA-443A-BB17-9B03ED7099AB";
paths = (
{
closed = 1;
nodes = (
"8 0 LINE",
"94 0 LINE",
"94 0 OFFCURVE",
"114 97 OFFCURVE",
"137 205 CURVE SMOOTH",
"165 335 OFFCURVE",
"228 420 OFFCURVE",
"364 415 CURVE",
"383 504 LINE",
"277 504 OFFCURVE",
"226 464 OFFCURVE",
"184 403 CURVE",
"176 496 LINE",
"113 496 LINE"
);
}
);
width = 353;
}
);
leftMetricsKey = n;
unicode = 0072;
},
{
color = (255,153,254,255);
glyphname = s;
layers = (
{
layerId = "678C5AFE-F8DA-443A-BB17-9B03ED7099AB";
paths = (
{
closed = 1;
nodes = (
"10 113 LINE",
"44 24 OFFCURVE",
"113 -12 OFFCURVE",
"213 -12 CURVE SMOOTH",
"324 -12 OFFCURVE",
"413 41 OFFCURVE",
"413 143 CURVE SMOOTH",
"413 321 OFFCURVE",
"134 261 OFFCURVE",
"134 370 CURVE SMOOTH",
"134 457 OFFCURVE",
"324 455 OFFCURVE",
"351 374 CURVE",
"431 402 LINE",
"376 549 OFFCURVE",
"49 537 OFFCURVE",
"49 365 CURVE SMOOTH",
"49 185 OFFCURVE",
"325 249 OFFCURVE",
"325 137 CURVE SMOOTH",
"325 35 OFFCURVE",
"119 21 OFFCURVE",
"96 142 CURVE"
);
}
);
width = 479;
}
);
leftKerningGroup = s_2;
rightKerningGroup = s;
unicode = 0073;
},
{
color = (255,153,254,255);
glyphname = t;
layers = (
{
layerId = "678C5AFE-F8DA-443A-BB17-9B03ED7099AB";
paths = (
{
closed = 1;
nodes = (
"238 75 LINE",
"238 75 OFFCURVE",
"205 75 OFFCURVE",
"194 75 CURVE SMOOTH",
"145 75 OFFCURVE",
"146 93 OFFCURVE",
"156 140 CURVE SMOOTH",
"218 428 LINE",
"313 428 LINE",
"327 496 LINE",
"232 496 LINE",
"259 620 LINE",
"173 620 LINE",
"146 496 LINE",
"63 496 LINE",
"49 428 LINE",
"132 428 LINE",
"67 125 LINE SMOOTH",
"49 41 OFFCURVE",
"55 0 OFFCURVE",
"160 0 CURVE SMOOTH",
"175 0 OFFCURVE",
"222 0 OFFCURVE",
"222 0 CURVE"
);
}
);
width = 324;
}
);
leftKerningGroup = t;
rightKerningGroup = t1;
unicode = 0074;
},
{
color = (255,153,254,255);
glyphname = u;
layers = (
{
layerId = "678C5AFE-F8DA-443A-BB17-9B03ED7099AB";
paths = (
{
closed = 1;
nodes = (
"343 0 LINE",
"408 0 LINE",
"513 496 LINE",
"428 496 LINE",
"372 236 LINE SMOOTH",
"345 112 OFFCURVE",
"281 62 OFFCURVE",
"203 62 CURVE SMOOTH",
"116 62 OFFCURVE",
"119 128 OFFCURVE",
"135 205 CURVE SMOOTH",
"197 496 LINE",
"111 496 LINE",
"49 203 LINE SMOOTH",
"25 90 OFFCURVE",
"46 -11 OFFCURVE",
"173 -11 CURVE SMOOTH",
"249 -11 OFFCURVE",
"294 14 OFFCURVE",
"337 70 CURVE"
);
}
);
width = 540;
}
);
leftKerningGroup = u;
rightKerningGroup = u1;
unicode = 0075;
},
{
color = (255,153,254,255);
glyphname = v;
layers = (
{
layerId = "678C5AFE-F8DA-443A-BB17-9B03ED7099AB";
paths = (
{
closed = 1;
nodes = (
"115 0 LINE",
"204 0 LINE",
"487 496 LINE",
"389 496 LINE",
"177 110 LINE",
"130 496 LINE",
"43 496 LINE"
);
}
);
width = 444;
}
);
leftKerningGroup = y;
rightKerningGroup = y_2;
unicode = 0076;
},
{
color = (255,153,254,255);
glyphname = w;
layers = (
{
layerId = "678C5AFE-F8DA-443A-BB17-9B03ED7099AB";
paths = (
{
closed = 1;
nodes = (
"80 0 LINE",
"154 0 LINE",
"347 400 LINE",
"370 0 LINE",
"452 0 LINE",
"701 496 LINE",
"605 496 LINE",
"429 130 LINE",
"409 496 LINE",
"319 496 LINE",
"147 138 LINE",
"130 496 LINE",
"43 496 LINE"
);
}
);
width = 658;
}
);
leftMetricsKey = v;
rightMetricsKey = v;
unicode = 0077;
},
{
color = (255,153,254,255);
glyphname = x;
layers = (
{
layerId = "678C5AFE-F8DA-443A-BB17-9B03ED7099AB";
paths = (
{
closed = 1;
nodes = (
"-63 0 LINE",
"46 0 LINE",
"217 185 LINE",
"309 0 LINE",
"399 0 LINE",
"275 248 LINE",
"505 496 LINE",
"396 496 LINE",
"237 325 LINE",
"151 496 LINE",
"61 496 LINE",
"179 262 LINE"
);
}
);
width = 462;
}
);
leftMetricsKey = v;
rightMetricsKey = v;
unicode = 0078;
},
{
color = (255,153,254,255);
glyphname = y;
layers = (
{
layerId = "678C5AFE-F8DA-443A-BB17-9B03ED7099AB";
paths = (
{
closed = 1;
nodes = (
"-62 -161 LINE",
"-19 -161 LINE SMOOTH",
"106 -161 OFFCURVE",
"123 -143 OFFCURVE",
"191 -21 CURVE SMOOTH",
"478 496 LINE",
"378 496 LINE",
"172 110 LINE",
"132 496 LINE",
"43 496 LINE",
"116 0 LINE",
"80 -74 OFFCURVE",
"70 -86 OFFCURVE",
"-12 -86 CURVE SMOOTH",
"-46 -86 LINE"
);
}
);
width = 435;
}
);
leftKerningGroup = y;
leftMetricsKey = v;
rightKerningGroup = y_2;
rightMetricsKey = v;
unicode = 0079;
},
{
color = (255,153,254,255);
glyphname = z;
layers = (
{
layerId = "678C5AFE-F8DA-443A-BB17-9B03ED7099AB";
paths = (
{
closed = 1;
nodes = (
"-21 0 LINE",
"375 0 LINE",
"390 73 LINE",
"101 73 LINE",
"460 424 LINE",
"476 497 LINE",
"99 497 LINE",
"83 424 LINE",
"355 424 LINE",
"-6 73 LINE"
);
}
);
width = 467;
}
);
leftKerningGroup = z;
rightKerningGroup = z_2;
unicode = 007A;
},
{
color = (255,153,254,255);
glyphname = circumflex;
layers = (
{
layerId = "678C5AFE-F8DA-443A-BB17-9B03ED7099AB";
paths = (
{
closed = 1;
nodes = (
"113.504 575 LINE",
"209.504 575 LINE",
"290.043 636 LINE",
"344.504 575 LINE",
"436.504 575 LINE",
"346.167 676 LINE SMOOTH",
"334.758 689 OFFCURVE",
"317.876 695 OFFCURVE",
"300.876 695 CURVE SMOOTH",
"282.876 695 OFFCURVE",
"263.758 689 OFFCURVE",
"247.167 676 CURVE SMOOTH"
);
}
);
width = 429;
}
);
unicode = 02C6;
},
{
color = (255,153,254,255);
glyphname = caron;
layers = (
{
layerId = "678C5AFE-F8DA-443A-BB17-9B03ED7099AB";
paths = (
{
closed = 1;
nodes = (
"136 682 LINE",
"227 581 LINE SMOOTH",
"238 568 OFFCURVE",
"255 562 OFFCURVE",
"273 562 CURVE SMOOTH",
"290 562 OFFCURVE",
"309 568 OFFCURVE",
"326 581 CURVE SMOOTH",
"459 682 LINE",
"362 682 LINE",
"281 621 LINE",
"227 682 LINE"
);
}
);
width = 429;
}
);
unicode = 02C7;
},
{
color = (255,153,254,255);
glyphname = breve;
layers = (
{
layerId = "678C5AFE-F8DA-443A-BB17-9B03ED7099AB";
paths = (
{
closed = 1;
nodes = (
"361 682 LINE",
"344 655 OFFCURVE",
"315 629 OFFCURVE",
"272 629 CURVE SMOOTH",
"229 629 OFFCURVE",
"210 656 OFFCURVE",
"205 682 CURVE",
"136 682 LINE",
"136 627 OFFCURVE",
"180 562 OFFCURVE",
"265 562 CURVE SMOOTH",
"351 562 OFFCURVE",
"406 623 OFFCURVE",
"430 682 CURVE"
);
}
);
width = 400;
}
);
unicode = 02D8;
},
{
color = (255,153,254,255);
glyphname = dotaccent;
layers = (
{
layerId = "678C5AFE-F8DA-443A-BB17-9B03ED7099AB";
paths = (
{
closed = 1;
nodes = (
"212 583 OFFCURVE",
"236 607 OFFCURVE",
"236 637 CURVE SMOOTH",
"236 667 OFFCURVE",
"212 691 OFFCURVE",
"182 691 CURVE SMOOTH",
"152 691 OFFCURVE",
"128 667 OFFCURVE",
"128 637 CURVE SMOOTH",
"128 607 OFFCURVE",
"152 583 OFFCURVE",
"182 583 CURVE SMOOTH"
);
}
);
width = 216;
}
);
unicode = 02D9;
},
{
color = (255,153,254,255);
glyphname = ring;
layers = (
{
layerId = "678C5AFE-F8DA-443A-BB17-9B03ED7099AB";
paths = (
{
closed = 1;
nodes = (
"134 602 OFFCURVE",
"183 552 OFFCURVE",
"245 552 CURVE SMOOTH",
"306 552 OFFCURVE",
"352 602 OFFCURVE",
"352 661 CURVE SMOOTH",
"352 720 OFFCURVE",
"306 770 OFFCURVE",
"245 770 CURVE SMOOTH",
"183 770 OFFCURVE",
"134 720 OFFCURVE",
"134 661 CURVE SMOOTH"
);
},
{
closed = 1;
nodes = (
"191 689 OFFCURVE",
"214 712 OFFCURVE",
"243 712 CURVE SMOOTH",
"272 712 OFFCURVE",
"295 689 OFFCURVE",
"295 661 CURVE SMOOTH",
"295 633 OFFCURVE",
"272 610 OFFCURVE",
"243 610 CURVE SMOOTH",
"214 610 OFFCURVE",
"191 633 OFFCURVE",
"191 661 CURVE SMOOTH"
);
}
);
width = 329;
}
);
unicode = 02DA;
},
{
color = (255,153,254,255);
glyphname = ogonek;
layers = (
{
layerId = "678C5AFE-F8DA-443A-BB17-9B03ED7099AB";
paths = (
{
closed = 1;
nodes = (
"132 -107 LINE",
"85 -125 OFFCURVE",
"47 -114 OFFCURVE",
"47 -89 CURVE SMOOTH",
"47 -55 OFFCURVE",
"92 -23 OFFCURVE",
"155 0 CURVE",
"76 0 LINE",
"12 -19 OFFCURVE",
"-30 -61 OFFCURVE",
"-30 -106 CURVE SMOOTH",
"-30 -156 OFFCURVE",
"22 -193 OFFCURVE",
"121 -161 CURVE"
);
}
);
width = 270;
}
);
unicode = 02DB;
},
{
color = (255,153,254,255);
glyphname = quoteleft;
layers = (
{
layerId = "678C5AFE-F8DA-443A-BB17-9B03ED7099AB";
paths = (
{
closed = 1;
nodes = (
"196 668 LINE",
"105 517 LINE SMOOTH",
"81 477 OFFCURVE",
"105 426 OFFCURVE",
"148 419 CURVE",
"184 412 OFFCURVE",
"217 436 OFFCURVE",
"223 471 CURVE SMOOTH",
"228 503 OFFCURVE",
"211 532 OFFCURVE",
"181 543 CURVE",
"257 668 LINE"
);
}
);
width = 238;
}
);
leftKerningGroup = quoteleft;
rightKerningGroup = quoteleft_2;
unicode = 2018;
},
{
color = (255,153,254,255);
glyphname = quoteright;
layers = (
{
layerId = "678C5AFE-F8DA-443A-BB17-9B03ED7099AB";
paths = (
{
closed = 1;
nodes = (
"91 429 LINE",
"152 429 LINE",
"242 581 LINE",
"268 621 OFFCURVE",
"243 671 OFFCURVE",
"199 679 CURVE SMOOTH",
"164 685 OFFCURVE",
"131 662 OFFCURVE",
"124 627 CURVE",
"119 595 OFFCURVE",
"137 565 OFFCURVE",
"166 555 CURVE"
);
}
);
width = 238;
}
);
leftKerningGroup = quoteright;
rightKerningGroup = quoteright_2;
unicode = 2019;
},
{
color = (255,153,254,255);
glyphname = quotesinglbase;
layers = (
{
layerId = "678C5AFE-F8DA-443A-BB17-9B03ED7099AB";
paths = (
{
closed = 1;
nodes = (
"-28 -133 LINE",
"33 -133 LINE",
"123 18 LINE",
"149 58 OFFCURVE",
"124 109 OFFCURVE",
"80 117 CURVE SMOOTH",
"45 123 OFFCURVE",
"12 99 OFFCURVE",
"5 64 CURVE",
"0 33 OFFCURVE",
"18 3 OFFCURVE",
"47 -8 CURVE"
);
}
);
width = 239;
}
);
leftKerningGroup = period;
rightKerningGroup = period_2;
unicode = 201A;
},
{
color = (255,153,254,255);
glyphname = quotedblleft;
layers = (
{
layerId = "678C5AFE-F8DA-443A-BB17-9B03ED7099AB";
paths = (
{
closed = 1;
nodes = (
"196 668 LINE",
"105 517 LINE SMOOTH",
"81 477 OFFCURVE",
"105 426 OFFCURVE",
"148 419 CURVE",
"184 412 OFFCURVE",
"217 436 OFFCURVE",
"223 471 CURVE SMOOTH",
"228 503 OFFCURVE",
"211 532 OFFCURVE",
"181 543 CURVE",
"257 668 LINE"
);
},
{
closed = 1;
nodes = (
"352 668 LINE",
"262 517 LINE",
"236 477 OFFCURVE",
"261 426 OFFCURVE",
"305 419 CURVE",
"340 412 OFFCURVE",
"373 436 OFFCURVE",
"380 471 CURVE",
"385 502 OFFCURVE",
"367 532 OFFCURVE",
"338 543 CURVE",
"412 668 LINE"
);
}
);
width = 395;
}
);
leftKerningGroup = quoteleft;
rightKerningGroup = quoteleft_2;
unicode = 201C;
},
{
color = (255,153,254,255);
glyphname = quotedblright;
layers = (
{
layerId = "678C5AFE-F8DA-443A-BB17-9B03ED7099AB";
paths = (
{
closed = 1;
nodes = (
"247 429 LINE",
"308 429 LINE",
"398 581 LINE",
"423 621 OFFCURVE",
"398 671 OFFCURVE",
"355 679 CURVE SMOOTH",
"320 685 OFFCURVE",
"287 662 OFFCURVE",
"281 627 CURVE SMOOTH",
"275 595 OFFCURVE",
"293 565 OFFCURVE",
"322 555 CURVE"
);
},
{
closed = 1;
nodes = (
"91 429 LINE",
"152 429 LINE",
"242 581 LINE",
"268 621 OFFCURVE",
"243 671 OFFCURVE",
"199 679 CURVE SMOOTH",
"164 685 OFFCURVE",
"131 662 OFFCURVE",
"124 627 CURVE",
"119 595 OFFCURVE",
"137 565 OFFCURVE",
"166 555 CURVE"
);
}
);
width = 394;
}
);
leftKerningGroup = quoteright;
rightKerningGroup = quoteright_2;
unicode = 201D;
},
{
color = (255,153,254,255);
glyphname = quotedblbase;
layers = (
{
layerId = "678C5AFE-F8DA-443A-BB17-9B03ED7099AB";
paths = (
{
closed = 1;
nodes = (
"128 -133 LINE",
"189 -133 LINE",
"279 18 LINE",
"304 58 OFFCURVE",
"279 109 OFFCURVE",
"236 117 CURVE SMOOTH",
"201 123 OFFCURVE",
"168 99 OFFCURVE",
"162 64 CURVE SMOOTH",
"157 33 OFFCURVE",
"174 3 OFFCURVE",
"203 -8 CURVE"
);
},
{
closed = 1;
nodes = (
"-28 -133 LINE",
"33 -133 LINE",
"123 18 LINE",
"149 58 OFFCURVE",
"124 109 OFFCURVE",
"80 117 CURVE SMOOTH",
"45 123 OFFCURVE",
"12 99 OFFCURVE",
"5 64 CURVE",
"0 33 OFFCURVE",
"18 3 OFFCURVE",
"47 -8 CURVE"
);
}
);
width = 394;
}
);
leftKerningGroup = period;
rightKerningGroup = period_2;
unicode = 201E;
},
{
color = (255,153,254,255);
glyphname = dagger;
layers = (
{
layerId = "678C5AFE-F8DA-443A-BB17-9B03ED7099AB";
paths = (
{
closed = 1;
nodes = (
"168 0 LINE",
"250 0 LINE",
"338 417 LINE",
"527 417 LINE",
"544 496 LINE",
"355 496 LINE",
"391 668 LINE",
"311 668 LINE",
"274 496 LINE",
"84 496 LINE",
"67 417 LINE",
"257 417 LINE"
);
}
);
width = 541;
}
);
unicode = 2020;
},
{
color = (255,153,254,255);
glyphname = daggerdbl;
layers = (
{
layerId = "678C5AFE-F8DA-443A-BB17-9B03ED7099AB";
paths = (
{
closed = 1;
nodes = (
"168 0 LINE",
"250 0 LINE",
"286 173 LINE",
"475 173 LINE",
"492 252 LINE",
"303 252 LINE",
"337 417 LINE",
"527 417 LINE",
"544 496 LINE",
"354 496 LINE",
"391 668 LINE",
"311 668 LINE",
"274 496 LINE",
"84 496 LINE",
"67 417 LINE",
"257 417 LINE",
"222 252 LINE",
"32 252 LINE",
"15 173 LINE",
"205 173 LINE"
);
}
);
width = 541;
}
);
unicode = 2021;
},
{
color = (255,153,254,255);
glyphname = bullet;
layers = (
{
layerId = "678C5AFE-F8DA-443A-BB17-9B03ED7099AB";
paths = (
{
closed = 1;
nodes = (
"307 88 OFFCURVE",
"381 163 OFFCURVE",
"381 254 CURVE SMOOTH",
"381 346 OFFCURVE",
"307 420 OFFCURVE",
"215 420 CURVE SMOOTH",
"123 420 OFFCURVE",
"49 346 OFFCURVE",
"49 254 CURVE SMOOTH",
"49 163 OFFCURVE",
"123 88 OFFCURVE",
"215 88 CURVE SMOOTH"
);
}
);
width = 446;
}
);
unicode = 2022;
},
{
color = (255,153,254,255);
glyphname = ellipsis;
layers = (
{
layerId = "678C5AFE-F8DA-443A-BB17-9B03ED7099AB";
paths = (
{
closed = 1;
nodes = (
"465 17 OFFCURVE",
"494 -12 OFFCURVE",
"530 -12 CURVE SMOOTH",
"565 -12 OFFCURVE",
"594 17 OFFCURVE",
"594 52 CURVE SMOOTH",
"594 88 OFFCURVE",
"565 117 OFFCURVE",
"530 117 CURVE SMOOTH",
"494 117 OFFCURVE",
"465 88 OFFCURVE",
"465 52 CURVE SMOOTH"
);
},
{
closed = 1;
nodes = (
"104 -12 OFFCURVE",
"133 17 OFFCURVE",
"133 52 CURVE SMOOTH",
"133 88 OFFCURVE",
"104 117 OFFCURVE",
"68 117 CURVE SMOOTH",
"33 117 OFFCURVE",
"4 88 OFFCURVE",
"4 52 CURVE SMOOTH",
"4 17 OFFCURVE",
"33 -12 OFFCURVE",
"68 -12 CURVE SMOOTH"
);
},
{
closed = 1;
nodes = (
"335 -12 OFFCURVE",
"364 17 OFFCURVE",
"364 52 CURVE SMOOTH",
"364 88 OFFCURVE",
"335 117 OFFCURVE",
"299 117 CURVE SMOOTH",
"263 117 OFFCURVE",
"235 88 OFFCURVE",
"235 52 CURVE SMOOTH",
"235 17 OFFCURVE",
"263 -12 OFFCURVE",
"299 -12 CURVE SMOOTH"
);
}
);
width = 699;
}
);
leftKerningGroup = period;
rightKerningGroup = period_2;
unicode = 2026;
},
{
color = (255,153,254,255);
glyphname = perthousand;
lastChange = "2021-04-20 16:20:30 +0000";
layers = (
{
layerId = "678C5AFE-F8DA-443A-BB17-9B03ED7099AB";
paths = (
{
closed = 1;
nodes = (
"234 0 LINE",
"322 0 LINE",
"790 668 LINE",
"702 668 LINE"
);
},
{
closed = 1;
nodes = (
"368 316 OFFCURVE",
"449 398 OFFCURVE",
"449 498 CURVE SMOOTH",
"449 598 OFFCURVE",
"368 680 OFFCURVE",
"268 680 CURVE SMOOTH",
"167 680 OFFCURVE",
"86 598 OFFCURVE",
"86 498 CURVE SMOOTH",
"86 398 OFFCURVE",
"167 316 OFFCURVE",
"268 316 CURVE SMOOTH"
);
},
{
closed = 1;
nodes = (
"160 557 OFFCURVE",
"209 605 OFFCURVE",
"268 605 CURVE SMOOTH",
"327 605 OFFCURVE",
"375 557 OFFCURVE",
"375 498 CURVE SMOOTH",
"375 439 OFFCURVE",
"327 391 OFFCURVE",
"268 391 CURVE SMOOTH",
"209 391 OFFCURVE",
"160 439 OFFCURVE",
"160 498 CURVE SMOOTH"
);
},
{
closed = 1;
nodes = (
"574 69 OFFCURVE",
"655 -12 OFFCURVE",
"756 -12 CURVE SMOOTH",
"856 -12 OFFCURVE",
"937 69 OFFCURVE",
"937 169 CURVE SMOOTH",
"937 270 OFFCURVE",
"856 351 OFFCURVE",
"756 351 CURVE SMOOTH",
"655 351 OFFCURVE",
"574 270 OFFCURVE",
"574 169 CURVE SMOOTH"
);
},
{
closed = 1;
nodes = (
"648 229 OFFCURVE",
"696 277 OFFCURVE",
"756 277 CURVE SMOOTH",
"815 277 OFFCURVE",
"863 229 OFFCURVE",
"863 169 CURVE SMOOTH",
"863 110 OFFCURVE",
"815 62 OFFCURVE",
"756 62 CURVE SMOOTH",
"696 62 OFFCURVE",
"648 110 OFFCURVE",
"648 169 CURVE SMOOTH"
);
},
{
closed = 1;
nodes = (
"975 69 OFFCURVE",
"1056 -12 OFFCURVE",
"1157 -12 CURVE SMOOTH",
"1257 -12 OFFCURVE",
"1338 69 OFFCURVE",
"1338 169 CURVE SMOOTH",
"1338 270 OFFCURVE",
"1257 351 OFFCURVE",
"1157 351 CURVE SMOOTH",
"1056 351 OFFCURVE",
"975 270 OFFCURVE",
"975 169 CURVE SMOOTH"
);
},
{
closed = 1;
nodes = (
"1049 229 OFFCURVE",
"1097 277 OFFCURVE",
"1157 277 CURVE SMOOTH",
"1216 277 OFFCURVE",
"1264 229 OFFCURVE",
"1264 169 CURVE SMOOTH",
"1264 110 OFFCURVE",
"1216 62 OFFCURVE",
"1157 62 CURVE SMOOTH",
"1097 62 OFFCURVE",
"1049 110 OFFCURVE",
"1049 169 CURVE SMOOTH"
);
}
);
width = 1406;
}
);
leftKerningGroup = percent;
leftMetricsKey = o;
rightMetricsKey = o;
unicode = 2030;
},
{
color = (255,153,254,255);
glyphname = guilsinglleft;
layers = (
{
layerId = "678C5AFE-F8DA-443A-BB17-9B03ED7099AB";
paths = (
{
closed = 1;
nodes = (
"321 461 LINE",
"217 461 LINE",
"45 250 LINE",
"148 40 LINE",
"237 40 LINE",
"136 247 LINE",
"129 227 LINE"
);
}
);
width = 355;
}
);
leftKerningGroup = guilsinglleft;
rightKerningGroup = guilsinglleft_2;
unicode = 2039;
},
{
color = (255,153,254,255);
glyphname = guilsinglright;
layers = (
{
layerId = "678C5AFE-F8DA-443A-BB17-9B03ED7099AB";
paths = (
{
closed = 1;
nodes = (
"9 40 LINE",
"113 40 LINE",
"285 251 LINE",
"182 461 LINE",
"93 461 LINE",
"194 254 LINE",
"201 274 LINE"
);
}
);
width = 347;
}
);
leftKerningGroup = guilsinglright;
rightKerningGroup = guilsinglright_2;
unicode = 203A;
},
{
color = (255,153,254,255);
glyphname = fraction;
layers = (
{
layerId = "678C5AFE-F8DA-443A-BB17-9B03ED7099AB";
paths = (
{
closed = 1;
nodes = (
"-47 0 LINE",
"41 0 LINE",
"509 668 LINE",
"421 668 LINE"
);
}
);
width = 444;
}
);
unicode = 2044;
},
{
color = (255,153,254,255);
glyphname = ordfeminine;
layers = (
{
layerId = "678C5AFE-F8DA-443A-BB17-9B03ED7099AB";
paths = (
{
closed = 1;
nodes = (
"255 403 LINE",
"314 403 LINE",
"314 461 OFFCURVE",
"325 516 OFFCURVE",
"338 572 CURVE SMOOTH",
"356 651 OFFCURVE",
"312 691 OFFCURVE",
"231 691 CURVE",
"171 691 OFFCURVE",
"129 667 OFFCURVE",
"108 624 CURVE",
"165 606 LINE",
"177 631 OFFCURVE",
"198 643 OFFCURVE",
"221 643 CURVE SMOOTH",
"278 643 OFFCURVE",
"279 610 OFFCURVE",
"272 577 CURVE",
"169 565 OFFCURVE",
"74 548 OFFCURVE",
"72 470 CURVE SMOOTH",
"71 426 OFFCURVE",
"106 396 OFFCURVE",
"159 396 CURVE SMOOTH",
"192 396 OFFCURVE",
"229 405 OFFCURVE",
"252 441 CURVE"
);
},
{
closed = 1;
nodes = (
"259 518 LINE",
"251 478 OFFCURVE",
"234 447 OFFCURVE",
"179 447 CURVE SMOOTH",
"157 447 OFFCURVE",
"142 459 OFFCURVE",
"145 480 CURVE",
"147 507 OFFCURVE",
"170 520 OFFCURVE",
"262 529 CURVE"
);
}
);
width = 363;
}
);
unicode = 00AA;
},
{
color = (255,153,254,255);
glyphname = guillemotleft;
layers = (
{
layerId = "678C5AFE-F8DA-443A-BB17-9B03ED7099AB";
paths = (
{
closed = 1;
nodes = (
"321 461 LINE",
"217 461 LINE",
"45 250 LINE",
"148 40 LINE",
"237 40 LINE",
"136 247 LINE",
"129 227 LINE"
);
},
{
closed = 1;
nodes = (
"529 461 LINE",
"425 461 LINE",
"253 250 LINE",
"356 40 LINE",
"445 40 LINE",
"344 247 LINE",
"337 227 LINE"
);
}
);
width = 563;
}
);
leftKerningGroup = guilsinglleft;
rightKerningGroup = guilsinglleft_2;
unicode = 00AB;
},
{
color = (255,153,254,255);
glyphname = logicalnot;
layers = (
{
layerId = "678C5AFE-F8DA-443A-BB17-9B03ED7099AB";
paths = (
{
closed = 1;
nodes = (
"75 317 LINE",
"490 317 LINE",
"490 90 LINE",
"571 90 LINE",
"571 396 LINE",
"75 396 LINE"
);
}
);
width = 667;
}
);
unicode = 00AC;
},
{
color = (255,153,254,255);
glyphname = registered;
layers = (
{
layerId = "678C5AFE-F8DA-443A-BB17-9B03ED7099AB";
paths = (
{
closed = 1;
nodes = (
"70 143 OFFCURVE",
"225 -12 OFFCURVE",
"416 -12 CURVE SMOOTH",
"607 -12 OFFCURVE",
"762 143 OFFCURVE",
"762 333 CURVE SMOOTH",
"762 525 OFFCURVE",
"607 680 OFFCURVE",
"416 680 CURVE SMOOTH",
"225 680 OFFCURVE",
"70 525 OFFCURVE",
"70 333 CURVE SMOOTH"
);
},
{
closed = 1;
nodes = (
"259 49 OFFCURVE",
"132 177 OFFCURVE",
"132 333 CURVE SMOOTH",
"132 490 OFFCURVE",
"259 619 OFFCURVE",
"416 619 CURVE SMOOTH",
"573 619 OFFCURVE",
"700 490 OFFCURVE",
"700 333 CURVE SMOOTH",
"700 177 OFFCURVE",
"573 49 OFFCURVE",
"416 49 CURVE SMOOTH"
);
},
{
closed = 1;
nodes = (
"281 162 LINE",
"357 162 LINE",
"357 301 LINE",
"399 301 LINE",
"501 162 LINE",
"587 162 LINE",
"479 311 LINE",
"555 332 OFFCURVE",
"567 383 OFFCURVE",
"567 414 CURVE SMOOTH",
"567 511 OFFCURVE",
"502 530 OFFCURVE",
"393 530 CURVE SMOOTH",
"281 530 LINE"
);
},
{
closed = 1;
nodes = (
"357 359 LINE",
"357 469 LINE",
"405 469 LINE SMOOTH",
"456 469 OFFCURVE",
"491 458 OFFCURVE",
"491 413 CURVE SMOOTH",
"491 378 OFFCURVE",
"467 359 OFFCURVE",
"410 359 CURVE SMOOTH"
);
}
);
width = 814;
}
);
unicode = 00AE;
},
{
color = (255,153,254,255);
glyphname = macron;
layers = (
{
layerId = "678C5AFE-F8DA-443A-BB17-9B03ED7099AB";
paths = (
{
closed = 1;
nodes = (
"118.773 601 LINE",
"394.773 601 LINE",
"409.017 668 LINE",
"133.017 668 LINE"
);
}
);
width = 382;
}
);
unicode = 00AF;
},
{
color = (255,153,254,255);
glyphname = degree;
layers = (
{
layerId = "678C5AFE-F8DA-443A-BB17-9B03ED7099AB";
paths = (
{
closed = 1;
nodes = (
"298 408 OFFCURVE",
"359 469 OFFCURVE",
"359 544 CURVE SMOOTH",
"359 619 OFFCURVE",
"298 680 OFFCURVE",
"223 680 CURVE SMOOTH",
"148 680 OFFCURVE",
"87 619 OFFCURVE",
"87 544 CURVE SMOOTH",
"87 469 OFFCURVE",
"148 408 OFFCURVE",
"223 408 CURVE SMOOTH"
);
},
{
closed = 1;
nodes = (
"183 471 OFFCURVE",
"150 504 OFFCURVE",
"150 544 CURVE SMOOTH",
"150 585 OFFCURVE",
"183 617 OFFCURVE",
"223 617 CURVE SMOOTH",
"264 617 OFFCURVE",
"296 585 OFFCURVE",
"296 544 CURVE SMOOTH",
"296 504 OFFCURVE",
"264 471 OFFCURVE",
"223 471 CURVE SMOOTH"
);
}
);
width = 358;
}
);
unicode = 00B0;
},
{
color = (255,153,254,255);
glyphname = plusminus;
layers = (
{
layerId = "678C5AFE-F8DA-443A-BB17-9B03ED7099AB";
paths = (
{
closed = 1;
nodes = (
"65 270 LINE",
"262 270 LINE",
"262 124 LINE",
"341 124 LINE",
"341 270 LINE",
"538 270 LINE",
"538 349 LINE",
"341 349 LINE",
"341 496 LINE",
"262 496 LINE",
"262 349 LINE",
"65 349 LINE"
);
},
{
closed = 1;
nodes = (
"65 0 LINE",
"538 0 LINE",
"538 79 LINE",
"65 79 LINE"
);
}
);
width = 653;
}
);
unicode = 00B1;
},
{
color = (255,153,254,255);
glyphname = twosuperior;
layers = (
{
layerId = "678C5AFE-F8DA-443A-BB17-9B03ED7099AB";
paths = (
{
closed = 1;
nodes = (
"59 403 LINE",
"335 403 LINE",
"347 461 LINE",
"168 461 LINE",
"301 527 OFFCURVE",
"378 606 OFFCURVE",
"382 682 CURVE SMOOTH",
"386 754 OFFCURVE",
"328 786 OFFCURVE",
"258 786 CURVE SMOOTH",
"190 786 OFFCURVE",
"142 751 OFFCURVE",
"119 695 CURVE",
"179 676 LINE",
"194 719 OFFCURVE",
"226 736 OFFCURVE",
"257 736 CURVE SMOOTH",
"291 736 OFFCURVE",
"315 713 OFFCURVE",
"312 678 CURVE SMOOTH",
"307 615 OFFCURVE",
"252 557 OFFCURVE",
"71 457 CURVE"
);
}
);
width = 384;
}
);
unicode = 00B2;
},
{
color = (255,153,254,255);
glyphname = threesuperior;
layers = (
{
layerId = "678C5AFE-F8DA-443A-BB17-9B03ED7099AB";
paths = (
{
closed = 1;
nodes = (
"87 486 LINE",
"105 430 OFFCURVE",
"154 396 OFFCURVE",
"217 396 CURVE SMOOTH",
"294 396 OFFCURVE",
"357 431 OFFCURVE",
"366 505 CURVE",
"370 548 OFFCURVE",
"354 585 OFFCURVE",
"317 602 CURVE",
"362 619 OFFCURVE",
"385 651 OFFCURVE",
"385 689 CURVE SMOOTH",
"385 762 OFFCURVE",
"323 786 OFFCURVE",
"261 786 CURVE SMOOTH",
"199 786 OFFCURVE",
"148 759 OFFCURVE",
"120 701 CURVE",
"178 683 LINE",
"196 721 OFFCURVE",
"220 736 OFFCURVE",
"258 736 CURVE SMOOTH",
"290 736 OFFCURVE",
"317 722 OFFCURVE",
"317 682 CURVE SMOOTH",
"317 623 OFFCURVE",
"232 626 OFFCURVE",
"205 626 CURVE",
"194 572 LINE",
"227 572 OFFCURVE",
"301 577 OFFCURVE",
"298 509 CURVE SMOOTH",
"296 469 OFFCURVE",
"265 447 OFFCURVE",
"223 447 CURVE SMOOTH",
"183 447 OFFCURVE",
"160 471 OFFCURVE",
"151 503 CURVE"
);
}
);
width = 394;
}
);
unicode = 00B3;
},
{
color = (255,153,254,255);
glyphname = acute;
layers = (
{
layerId = "678C5AFE-F8DA-443A-BB17-9B03ED7099AB";
paths = (
{
closed = 1;
nodes = (
"187 572 LINE",
"187 572 OFFCURVE",
"265 624 OFFCURVE",
"285 641 CURVE SMOOTH",
"300 654 OFFCURVE",
"302 679 OFFCURVE",
"288 695 CURVE SMOOTH",
"274 710 OFFCURVE",
"250 712 OFFCURVE",
"234 698 CURVE SMOOTH",
"214 681 OFFCURVE",
"113 572 OFFCURVE",
"113 572 CURVE"
);
}
);
width = 271;
}
);
unicode = 00B4;
},
{
color = (255,153,254,255);
glyphname = mu;
lastChange = "2021-04-20 16:20:30 +0000";
layers = (
{
layerId = "678C5AFE-F8DA-443A-BB17-9B03ED7099AB";
paths = (
{
closed = 1;
nodes = (
"-26 -162 LINE",
"62 -162 LINE",
"105 44 LINE",
"122 6 OFFCURVE",
"159 -12 OFFCURVE",
"195 -12 CURVE SMOOTH",
"268 -12 OFFCURVE",
"305 18 OFFCURVE",
"341 68 CURVE",
"346 0 LINE",
"411 0 LINE",
"517 495 LINE",
"431 495 LINE",
"376 235 LINE SMOOTH",
"340 67 OFFCURVE",
"258 47 OFFCURVE",
"190 61 CURVE SMOOTH",
"137 72 OFFCURVE",
"121 111 OFFCURVE",
"138 196 CURVE",
"202 495 LINE",
"114 495 LINE"
);
}
);
width = 543;
}
);
leftMetricsKey = p;
rightMetricsKey = u;
unicode = 03BC;
},
{
color = (255,153,254,255);
glyphname = paragraph;
layers = (
{
layerId = "678C5AFE-F8DA-443A-BB17-9B03ED7099AB";
paths = (
{
closed = 1;
nodes = (
"91 -162 LINE",
"174 -162 LINE",
"336 600 LINE",
"429 600 LINE",
"268 -162 LINE",
"351 -162 LINE",
"512 600 LINE",
"553 600 LINE",
"568 668 LINE",
"308 668 LINE SMOOTH",
"203 668 OFFCURVE",
"101 583 OFFCURVE",
"78 478 CURVE SMOOTH",
"58 388 OFFCURVE",
"107 313 OFFCURVE",
"188 294 CURVE"
);
}
);
width = 522;
}
);
leftMetricsKey = q;
rightMetricsKey = f;
unicode = 00B6;
},
{
color = (255,153,254,255);
glyphname = periodcentered;
layers = (
{
layerId = "678C5AFE-F8DA-443A-BB17-9B03ED7099AB";
paths = (
{
closed = 1;
nodes = (
"153 183 OFFCURVE",
"182 212 OFFCURVE",
"182 248 CURVE SMOOTH",
"182 283 OFFCURVE",
"153 312 OFFCURVE",
"117 312 CURVE SMOOTH",
"82 312 OFFCURVE",
"53 283 OFFCURVE",
"53 248 CURVE SMOOTH",
"53 212 OFFCURVE",
"82 183 OFFCURVE",
"117 183 CURVE SMOOTH"
);
}
);
width = 235;
}
);
unicode = 00B7;
},
{
color = (255,153,254,255);
glyphname = cedilla;
layers = (
{
layerId = "678C5AFE-F8DA-443A-BB17-9B03ED7099AB";
paths = (
{
closed = 1;
nodes = (
"-24 -163 LINE",
"191 -243 OFFCURVE",
"241 -19 OFFCURVE",
"87 -45 CURVE",
"128 4 LINE",
"98 25 LINE",
"30 -57 LINE SMOOTH",
"18 -72 OFFCURVE",
"29 -91 OFFCURVE",
"49 -86 CURVE SMOOTH",
"160 -58 OFFCURVE",
"117 -180 OFFCURVE",
"-1 -126 CURVE"
);
}
);
width = 294;
}
);
unicode = 00B8;
},
{
color = (255,153,254,255);
glyphname = onesuperior;
layers = (
{
layerId = "678C5AFE-F8DA-443A-BB17-9B03ED7099AB";
paths = (
{
closed = 1;
nodes = (
"139 403 LINE",
"208 403 LINE",
"288 779 LINE",
"231 779 LINE",
"212 741 OFFCURVE",
"179 730 OFFCURVE",
"126 730 CURVE",
"116 682 LINE",
"199 682 LINE"
);
}
);
width = 257;
}
);
unicode = 00B9;
},
{
color = (255,153,254,255);
glyphname = ordmasculine;
layers = (
{
layerId = "678C5AFE-F8DA-443A-BB17-9B03ED7099AB";
paths = (
{
closed = 1;
nodes = (
"281 399 OFFCURVE",
"353 445 OFFCURVE",
"363 546 CURVE SMOOTH",
"373 646 OFFCURVE",
"312 692 OFFCURVE",
"241 692 CURVE SMOOTH",
"170 692 OFFCURVE",
"99 646 OFFCURVE",
"88 546 CURVE SMOOTH",
"77 445 OFFCURVE",
"139 399 OFFCURVE",
"210 399 CURVE"
);
},
{
closed = 1;
nodes = (
"176 452 OFFCURVE",
"151 486 OFFCURVE",
"157 546 CURVE SMOOTH",
"163 605 OFFCURVE",
"196 639 OFFCURVE",
"235 639 CURVE SMOOTH",
"275 639 OFFCURVE",
"300 605 OFFCURVE",
"294 546 CURVE SMOOTH",
"288 486 OFFCURVE",
"256 452 OFFCURVE",
"216 452 CURVE SMOOTH"
);
}
);
width = 383;
}
);
unicode = 00BA;
},
{
color = (255,153,254,255);
glyphname = guillemotright;
layers = (
{
layerId = "678C5AFE-F8DA-443A-BB17-9B03ED7099AB";
paths = (
{
closed = 1;
nodes = (
"217 40 LINE",
"321 40 LINE",
"493 251 LINE",
"390 461 LINE",
"301 461 LINE",
"402 254 LINE",
"409 274 LINE"
);
},
{
closed = 1;
nodes = (
"9 40 LINE",
"113 40 LINE",
"285 251 LINE",
"182 461 LINE",
"93 461 LINE",
"194 254 LINE",
"201 274 LINE"
);
}
);
width = 555;
}
);
leftKerningGroup = guilsinglright;
rightKerningGroup = guilsinglright_2;
unicode = 00BB;
},
{
color = (255,153,254,255);
glyphname = onequarter;
layers = (
{
layerId = "678C5AFE-F8DA-443A-BB17-9B03ED7099AB";
paths = (
{
closed = 1;
nodes = (
"136 292 LINE",
"204 292 LINE",
"284 667 LINE",
"227 667 LINE",
"208 629 OFFCURVE",
"175 618 OFFCURVE",
"122 618 CURVE",
"112 571 LINE",
"195 571 LINE"
);
},
{
closed = 1;
nodes = (
"100 0 LINE",
"188 0 LINE",
"656 668 LINE",
"568 668 LINE"
);
},
{
closed = 1;
nodes = (
"399 86 LINE",
"592 86 LINE",
"574 0 LINE",
"644 0 LINE",
"662 86 LINE",
"727 86 LINE",
"739 143 LINE",
"674 143 LINE",
"724 375 LINE",
"647 375 LINE",
"411 140 LINE"
);
},
{
closed = 1;
nodes = (
"492 143 LINE",
"636 289 LINE",
"604 143 LINE"
);
}
);
width = 824;
}
);
unicode = 00BC;
},
{
color = (255,153,254,255);
glyphname = onehalf;
layers = (
{
layerId = "678C5AFE-F8DA-443A-BB17-9B03ED7099AB";
paths = (
{
closed = 1;
nodes = (
"135 292 LINE",
"204 292 LINE",
"284 667 LINE",
"227 667 LINE",
"208 629 OFFCURVE",
"175 618 OFFCURVE",
"122 618 CURVE",
"112 571 LINE",
"194 571 LINE"
);
},
{
closed = 1;
nodes = (
"93 0 LINE",
"181 0 LINE",
"649 668 LINE",
"561 668 LINE"
);
},
{
closed = 1;
nodes = (
"411 0 LINE",
"687 0 LINE",
"699 58 LINE",
"520 58 LINE",
"652 124 OFFCURVE",
"731 203 OFFCURVE",
"735 279 CURVE SMOOTH",
"739 350 OFFCURVE",
"680 382 OFFCURVE",
"610 382 CURVE SMOOTH",
"542 382 OFFCURVE",
"494 348 OFFCURVE",
"471 292 CURVE",
"531 273 LINE",
"546 316 OFFCURVE",
"578 333 OFFCURVE",
"608 333 CURVE SMOOTH",
"642 333 OFFCURVE",
"667 310 OFFCURVE",
"664 274 CURVE SMOOTH",
"659 212 OFFCURVE",
"604 154 OFFCURVE",
"422 54 CURVE"
);
}
);
width = 802;
}
);
unicode = 00BD;
},
{
color = (255,153,254,255);
glyphname = threequarters;
layers = (
{
layerId = "678C5AFE-F8DA-443A-BB17-9B03ED7099AB";
paths = (
{
closed = 1;
nodes = (
"193 0 LINE",
"281 0 LINE",
"749 668 LINE",
"661 668 LINE"
);
},
{
closed = 1;
nodes = (
"482 86 LINE",
"675 86 LINE",
"656 0 LINE",
"726 0 LINE",
"745 86 LINE",
"809 86 LINE",
"821 143 LINE",
"756 143 LINE",
"806 375 LINE",
"730 375 LINE",
"493 140 LINE"
);
},
{
closed = 1;
nodes = (
"574 143 LINE",
"718 289 LINE",
"687 143 LINE"
);
},
{
closed = 1;
nodes = (
"84 379 LINE",
"102 325 OFFCURVE",
"151 291 OFFCURVE",
"214 291 CURVE SMOOTH",
"291 291 OFFCURVE",
"354 326 OFFCURVE",
"363 399 CURVE",
"367 441 OFFCURVE",
"351 479 OFFCURVE",
"314 496 CURVE",
"359 513 OFFCURVE",
"382 545 OFFCURVE",
"382 582 CURVE SMOOTH",
"382 656 OFFCURVE",
"320 679 OFFCURVE",
"258 679 CURVE SMOOTH",
"196 679 OFFCURVE",
"145 652 OFFCURVE",
"117 594 CURVE",
"175 576 LINE",
"193 614 OFFCURVE",
"217 629 OFFCURVE",
"255 629 CURVE SMOOTH",
"287 629 OFFCURVE",
"314 616 OFFCURVE",
"314 576 CURVE SMOOTH",
"314 517 OFFCURVE",
"229 520 OFFCURVE",
"202 520 CURVE",
"191 465 LINE",
"224 465 OFFCURVE",
"298 471 OFFCURVE",
"295 402 CURVE SMOOTH",
"293 363 OFFCURVE",
"262 342 OFFCURVE",
"220 342 CURVE SMOOTH",
"180 342 OFFCURVE",
"157 365 OFFCURVE",
"148 397 CURVE"
);
}
);
width = 906;
}
);
unicode = 00BE;
},
{
color = (255,153,254,255);
glyphname = less;
layers = (
{
layerId = "678C5AFE-F8DA-443A-BB17-9B03ED7099AB";
paths = (
{
closed = 1;
nodes = (
"38 213 LINE",
"511 0 LINE",
"511 90 LINE",
"143 248 LINE",
"511 406 LINE",
"511 496 LINE",
"38 283 LINE"
);
}
);
width = 613;
}
);
unicode = 003C;
},
{
color = (255,153,254,255);
glyphname = equal;
layers = (
{
layerId = "678C5AFE-F8DA-443A-BB17-9B03ED7099AB";
paths = (
{
closed = 1;
nodes = (
"63 307 LINE",
"559 307 LINE",
"559 386 LINE",
"63 386 LINE"
);
},
{
closed = 1;
nodes = (
"63 121 LINE",
"559 121 LINE",
"559 200 LINE",
"63 200 LINE"
);
}
);
width = 658;
}
);
unicode = 003D;
},
{
color = (255,153,254,255);
glyphname = greater;
layers = (
{
layerId = "678C5AFE-F8DA-443A-BB17-9B03ED7099AB";
paths = (
{
closed = 1;
nodes = (
"83 0 LINE",
"556 213 LINE",
"556 283 LINE",
"83 496 LINE",
"83 406 LINE",
"451 248 LINE",
"83 90 LINE"
);
}
);
width = 613;
}
);
unicode = 003E;
},
{
color = (255,153,254,255);
glyphname = question;
layers = (
{
layerId = "678C5AFE-F8DA-443A-BB17-9B03ED7099AB";
paths = (
{
closed = 1;
nodes = (
"170 190 LINE",
"255 190 LINE",
"263 224 LINE",
"273 275 OFFCURVE",
"296 313 OFFCURVE",
"372 351 CURVE",
"441 384 OFFCURVE",
"512 430 OFFCURVE",
"522 508 CURVE SMOOTH",
"539 637 OFFCURVE",
"425 679 OFFCURVE",
"332 679 CURVE SMOOTH",
"219 679 OFFCURVE",
"127 630 OFFCURVE",
"89 524 CURVE",
"166 500 LINE",
"190 571 OFFCURVE",
"247 609 OFFCURVE",
"329 609 CURVE SMOOTH",
"392 609 OFFCURVE",
"441 572 OFFCURVE",
"432 513 CURVE",
"424 469 OFFCURVE",
"383 442 OFFCURVE",
"342 421 CURVE SMOOTH",
"264 381 OFFCURVE",
"202 340 OFFCURVE",
"177 227 CURVE"
);
},
{
closed = 1;
nodes = (
"196 -21 OFFCURVE",
"234 -5 OFFCURVE",
"248 28 CURVE SMOOTH",
"262 61 OFFCURVE",
"246 98 OFFCURVE",
"213 112 CURVE SMOOTH",
"180 126 OFFCURVE",
"142 110 OFFCURVE",
"128 77 CURVE SMOOTH",
"114 44 OFFCURVE",
"130 6 OFFCURVE",
"163 -7 CURVE SMOOTH"
);
}
);
width = 527;
}
);
unicode = 003F;
},
{
color = (255,153,254,255);
glyphname = at;
layers = (
{
layerId = "678C5AFE-F8DA-443A-BB17-9B03ED7099AB";
paths = (
{
closed = 1;
nodes = (
"476 442 OFFCURVE",
"476 440 OFFCURVE",
"454 339 CURVE",
"439 265 OFFCURVE",
"387 228 OFFCURVE",
"347 228 CURVE SMOOTH",
"313 228 OFFCURVE",
"286 256 OFFCURVE",
"298 312 CURVE SMOOTH",
"322 424 OFFCURVE",
"381 446 OFFCURVE",
"433 446 CURVE SMOOTH",
"449 446 OFFCURVE",
"463 444 OFFCURVE",
"476 442 CURVE"
);
},
{
closed = 1;
nodes = (
"548 85 LINE",
"505 61 OFFCURVE",
"459 49 OFFCURVE",
"413 49 CURVE SMOOTH",
"266 49 OFFCURVE",
"128 166 OFFCURVE",
"128 334 CURVE SMOOTH",
"128 492 OFFCURVE",
"256 619 OFFCURVE",
"412 619 CURVE SMOOTH",
"590 619 OFFCURVE",
"726 457 OFFCURVE",
"671 293 CURVE SMOOTH",
"654 243 OFFCURVE",
"611 219 OFFCURVE",
"575 219 CURVE SMOOTH",
"541 219 OFFCURVE",
"514 240 OFFCURVE",
"523 278 CURVE SMOOTH",
"534 324 OFFCURVE",
"570 499 OFFCURVE",
"570 499 CURVE",
"535 511 OFFCURVE",
"494 519 OFFCURVE",
"453 519 CURVE SMOOTH",
"353 519 OFFCURVE",
"251 471 OFFCURVE",
"219 319 CURVE SMOOTH",
"196 212 OFFCURVE",
"256 155 OFFCURVE",
"327 155 CURVE SMOOTH",
"371 155 OFFCURVE",
"420 178 OFFCURVE",
"455 225 CURVE",
"464 182 OFFCURVE",
"512 155 OFFCURVE",
"568 155 CURVE SMOOTH",
"650 155 OFFCURVE",
"745 214 OFFCURVE",
"745 366 CURVE SMOOTH",
"745 568 OFFCURVE",
"563 680 OFFCURVE",
"412 680 CURVE SMOOTH",
"221 680 OFFCURVE",
"66 525 OFFCURVE",
"66 334 CURVE SMOOTH",
"66 127 OFFCURVE",
"237 -12 OFFCURVE",
"415 -12 CURVE SMOOTH",
"460 -12 OFFCURVE",
"505 -3 OFFCURVE",
"548 16 CURVE"
);
}
);
width = 787;
}
);
leftMetricsKey = O;
rightMetricsKey = O;
unicode = 0040;
},
{
color = (255,153,254,255);
glyphname = colon;
lastChange = "2021-04-20 16:20:30 +0000";
layers = (
{
layerId = "678C5AFE-F8DA-443A-BB17-9B03ED7099AB";
paths = (
{
closed = 1;
nodes = (
"171 375 OFFCURVE",
"200 404 OFFCURVE",
"200 440 CURVE SMOOTH",
"200 475 OFFCURVE",
"171 504 OFFCURVE",
"135 504 CURVE SMOOTH",
"100 504 OFFCURVE",
"71 475 OFFCURVE",
"71 440 CURVE SMOOTH",
"71 404 OFFCURVE",
"100 375 OFFCURVE",
"135 375 CURVE SMOOTH"
);
},
{
closed = 1;
nodes = (
"89 -12 OFFCURVE",
"118 17 OFFCURVE",
"118 52 CURVE SMOOTH",
"118 88 OFFCURVE",
"89 117 OFFCURVE",
"53 117 CURVE SMOOTH",
"18 117 OFFCURVE",
"-11 88 OFFCURVE",
"-11 52 CURVE SMOOTH",
"-11 17 OFFCURVE",
"18 -12 OFFCURVE",
"53 -12 CURVE SMOOTH"
);
}
);
width = 208;
}
);
leftKerningGroup = colon;
leftMetricsKey = o;
rightKerningGroup = colon_2;
rightMetricsKey = o;
unicode = 003A;
},
{
color = (255,153,254,255);
glyphname = semicolon;
layers = (
{
layerId = "678C5AFE-F8DA-443A-BB17-9B03ED7099AB";
paths = (
{
closed = 1;
nodes = (
"172 375 OFFCURVE",
"201 404 OFFCURVE",
"201 440 CURVE SMOOTH",
"201 475 OFFCURVE",
"172 504 OFFCURVE",
"136 504 CURVE SMOOTH",
"101 504 OFFCURVE",
"72 475 OFFCURVE",
"72 440 CURVE SMOOTH",
"72 404 OFFCURVE",
"101 375 OFFCURVE",
"136 375 CURVE SMOOTH"
);
},
{
closed = 1;
nodes = (
"-43 -133 LINE",
"18 -133 LINE",
"108 18 LINE",
"134 58 OFFCURVE",
"109 108 OFFCURVE",
"65 116 CURVE SMOOTH",
"30 122 OFFCURVE",
"-3 99 OFFCURVE",
"-10 64 CURVE",
"-15 32 OFFCURVE",
"3 2 OFFCURVE",
"32 -8 CURVE"
);
}
);
width = 209;
}
);
leftKerningGroup = colon;
leftMetricsKey = o;
rightKerningGroup = colon_2;
rightMetricsKey = o;
unicode = 003B;
},
{
color = (255,153,254,255);
glyphname = bracketleft;
layers = (
{
layerId = "678C5AFE-F8DA-443A-BB17-9B03ED7099AB";
paths = (
{
closed = 1;
nodes = (
"-20 -161 LINE",
"188 -161 LINE",
"204 -87 LINE",
"79 -87 LINE",
"224 593 LINE",
"348 593 LINE",
"363 668 LINE",
"156 668 LINE"
);
}
);
width = 317;
}
);
leftMetricsKey = N;
unicode = 005B;
},
{
color = (255,153,254,255);
glyphname = backslash;
layers = (
{
layerId = "678C5AFE-F8DA-443A-BB17-9B03ED7099AB";
paths = (
{
closed = 1;
nodes = (
"355 0 LINE",
"442 0 LINE",
"182 668 LINE",
"95 668 LINE"
);
}
);
width = 519;
}
);
unicode = 005C;
},
{
color = (255,153,254,255);
glyphname = bracketright;
layers = (
{
layerId = "678C5AFE-F8DA-443A-BB17-9B03ED7099AB";
paths = (
{
closed = 1;
nodes = (
"-63 -161 LINE",
"145 -161 LINE",
"320 668 LINE",
"113 668 LINE",
"98 593 LINE",
"223 593 LINE",
"78 -87 LINE",
"-47 -87 LINE"
);
}
);
width = 317;
}
);
rightMetricsKey = N;
unicode = 005D;
},
{
color = (255,153,254,255);
glyphname = asciicircum;
layers = (
{
layerId = "678C5AFE-F8DA-443A-BB17-9B03ED7099AB";
paths = (
{
closed = 1;
nodes = (
"47 311 LINE",
"136 311 LINE",
"270 569 LINE",
"404 311 LINE",
"493 311 LINE",
"308 668 LINE",
"232 668 LINE"
);
}
);
width = 552;
}
);
unicode = 005E;
},
{
color = (255,153,254,255);
glyphname = underscore;
layers = (
{
layerId = "678C5AFE-F8DA-443A-BB17-9B03ED7099AB";
paths = (
{
closed = 1;
nodes = (
"-32 -79 LINE",
"344 -79 LINE",
"344 0 LINE",
"-32 0 LINE"
);
}
);
width = 413;
}
);
unicode = 005F;
},
{
color = (255,153,254,255);
glyphname = grave;
layers = (
{
layerId = "678C5AFE-F8DA-443A-BB17-9B03ED7099AB";
paths = (
{
closed = 1;
nodes = (
"278 571 LINE",
"278 571 OFFCURVE",
"218 670 OFFCURVE",
"202 692 CURVE SMOOTH",
"190 709 OFFCURVE",
"166 712 OFFCURVE",
"149 700 CURVE SMOOTH",
"133 688 OFFCURVE",
"129 664 OFFCURVE",
"141 647 CURVE SMOOTH",
"156 625 OFFCURVE",
"210 571 OFFCURVE",
"210 571 CURVE"
);
}
);
width = 272;
}
);
unicode = 0060;
},
{
color = (255,153,254,255);
glyphname = exclam;
layers = (
{
layerId = "678C5AFE-F8DA-443A-BB17-9B03ED7099AB";
paths = (
{
closed = 1;
nodes = (
"95 195 LINE",
"149 195 LINE",
"232 495 LINE",
"268 668 LINE",
"177 668 LINE",
"140 495 LINE"
);
},
{
closed = 1;
nodes = (
"34 7 OFFCURVE",
"67 -17 OFFCURVE",
"102 -11 CURVE SMOOTH",
"137 -5 OFFCURVE",
"161 28 OFFCURVE",
"155 63 CURVE SMOOTH",
"149 98 OFFCURVE",
"116 122 OFFCURVE",
"81 116 CURVE SMOOTH",
"46 110 OFFCURVE",
"22 77 OFFCURVE",
"28 42 CURVE SMOOTH"
);
}
);
width = 284;
}
);
leftMetricsKey = N;
rightMetricsKey = N;
unicode = 0021;
},
{
color = (255,153,254,255);
glyphname = quotedbl;
layers = (
{
layerId = "678C5AFE-F8DA-443A-BB17-9B03ED7099AB";
paths = (
{
closed = 1;
nodes = (
"250 447 LINE",
"302 447 LINE",
"316 668 LINE",
"236 668 LINE"
);
},
{
closed = 1;
nodes = (
"109 447 LINE",
"161 447 LINE",
"175 668 LINE",
"95 668 LINE"
);
}
);
width = 334;
}
);
leftKerningGroup = quotesingle;
rightKerningGroup = quotesingle_2;
unicode = 0022;
},
{
color = (255,153,254,255);
glyphname = numbersign;
lastChange = "2021-04-20 16:20:30 +0000";
layers = (
{
layerId = "678C5AFE-F8DA-443A-BB17-9B03ED7099AB";
paths = (
{
closed = 1;
nodes = (
"136 0 LINE",
"218 0 LINE",
"242 172 LINE",
"365 172 LINE",
"341 0 LINE",
"423 0 LINE",
"447 172 LINE",
"571 172 LINE",
"582 253 LINE",
"459 253 LINE",
"481 415 LINE",
"605 415 LINE",
"616 496 LINE",
"493 496 LINE",
"517 668 LINE",
"435 668 LINE",
"411 496 LINE",
"288 496 LINE",
"312 668 LINE",
"230 668 LINE",
"206 496 LINE",
"82 496 LINE",
"71 415 LINE",
"195 415 LINE",
"172 253 LINE",
"48 253 LINE",
"37 172 LINE",
"161 172 LINE"
);
},
{
closed = 1;
nodes = (
"254 253 LINE",
"276 415 LINE",
"399 415 LINE",
"377 253 LINE"
);
}
);
width = 634;
}
);
leftMetricsKey = o;
rightMetricsKey = o;
unicode = 0023;
},
{
color = (255,153,254,255);
glyphname = dollar;
lastChange = "2021-04-20 16:20:30 +0000";
layers = (
{
layerId = "678C5AFE-F8DA-443A-BB17-9B03ED7099AB";
paths = (
{
closed = 1;
nodes = (
"190 -80 LINE",
"242 -80 LINE",
"258 -4 LINE",
"397 -16 OFFCURVE",
"546 60 OFFCURVE",
"546 204 CURVE SMOOTH",
"546 325 OFFCURVE",
"439 358 OFFCURVE",
"341 388 CURVE",
"386 599 LINE",
"424 588 OFFCURVE",
"455 567 OFFCURVE",
"471 537 CURVE",
"563 563 LINE",
"535 624 OFFCURVE",
"473 663 OFFCURVE",
"403 679 CURVE",
"418 750 LINE",
"366 750 LINE",
"353 687 LINE",
"224 697 OFFCURVE",
"88 636 OFFCURVE",
"88 503 CURVE SMOOTH",
"88 381 OFFCURVE",
"183 346 OFFCURVE",
"275 319 CURVE",
"225 86 LINE",
"182 101 OFFCURVE",
"144 131 OFFCURVE",
"128 179 CURVE",
"37 153 LINE",
"65 72 OFFCURVE",
"131 23 OFFCURVE",
"208 4 CURVE"
);
},
{
closed = 1;
nodes = (
"293 403 LINE",
"229 424 OFFCURVE",
"179 451 OFFCURVE",
"183 512 CURVE SMOOTH",
"188 583 OFFCURVE",
"263 613 OFFCURVE",
"336 608 CURVE"
);
},
{
closed = 1;
nodes = (
"324 304 LINE",
"392 282 OFFCURVE",
"448 257 OFFCURVE",
"448 191 CURVE SMOOTH",
"448 109 OFFCURVE",
"360 67 OFFCURVE",
"275 75 CURVE"
);
}
);
width = 610;
}
);
leftMetricsKey = S;
rightMetricsKey = S;
unicode = 0024;
},
{
color = (255,153,254,255);
glyphname = percent;
lastChange = "2021-04-20 16:20:30 +0000";
layers = (
{
layerId = "678C5AFE-F8DA-443A-BB17-9B03ED7099AB";
paths = (
{
closed = 1;
nodes = (
"231 0 LINE",
"319 0 LINE",
"787 668 LINE",
"699 668 LINE"
);
},
{
closed = 1;
nodes = (
"346 317 OFFCURVE",
"436 398 OFFCURVE",
"447 499 CURVE SMOOTH",
"458 599 OFFCURVE",
"385 680 OFFCURVE",
"284 680 CURVE SMOOTH",
"184 680 OFFCURVE",
"94 599 OFFCURVE",
"83 499 CURVE SMOOTH",
"72 398 OFFCURVE",
"145 317 OFFCURVE",
"246 317 CURVE SMOOTH"
);
},
{
closed = 1;
nodes = (
"194 391 OFFCURVE",
"151 439 OFFCURVE",
"157 499 CURVE SMOOTH",
"163 558 OFFCURVE",
"217 606 OFFCURVE",
"276 606 CURVE SMOOTH",
"336 606 OFFCURVE",
"379 558 OFFCURVE",
"372 499 CURVE SMOOTH",
"365 439 OFFCURVE",
"313 391 OFFCURVE",
"254 391 CURVE"
);
},
{
closed = 1;
nodes = (
"834 -12 OFFCURVE",
"924 69 OFFCURVE",
"935 170 CURVE SMOOTH",
"946 270 OFFCURVE",
"873 351 OFFCURVE",
"772 351 CURVE SMOOTH",
"672 351 OFFCURVE",
"582 270 OFFCURVE",
"571 170 CURVE SMOOTH",
"560 69 OFFCURVE",
"633 -12 OFFCURVE",
"734 -12 CURVE SMOOTH"
);
},
{
closed = 1;
nodes = (
"682 62 OFFCURVE",
"639 110 OFFCURVE",
"645 170 CURVE SMOOTH",
"651 229 OFFCURVE",
"705 277 OFFCURVE",
"764 277 CURVE SMOOTH",
"824 277 OFFCURVE",
"867 229 OFFCURVE",
"860 170 CURVE SMOOTH",
"853 110 OFFCURVE",
"801 62 OFFCURVE",
"742 62 CURVE"
);
}
);
width = 1000;
}
);
leftKerningGroup = percent;
leftMetricsKey = o;
rightMetricsKey = o;
unicode = 0025;
},
{
color = (255,153,254,255);
glyphname = ampersand;
lastChange = "2021-04-20 16:20:30 +0000";
layers = (
{
layerId = "678C5AFE-F8DA-443A-BB17-9B03ED7099AB";
paths = (
{
closed = 1;
nodes = (
"507 0 LINE",
"619 0 LINE",
"503 157 LINE",
"551 217 OFFCURVE",
"595 289 OFFCURVE",
"616 360 CURVE",
"529 360 LINE",
"513 307 OFFCURVE",
"485 257 OFFCURVE",
"456 222 CURVE",
"351 362 LINE",
"441 397 OFFCURVE",
"526 446 OFFCURVE",
"536 536 CURVE SMOOTH",
"546 629 OFFCURVE",
"469 679 OFFCURVE",
"371 679 CURVE SMOOTH",
"271 679 OFFCURVE",
"202 630 OFFCURVE",
"185 543 CURVE SMOOTH",
"175 491 OFFCURVE",
"193 436 OFFCURVE",
"222 389 CURVE",
"113 354 OFFCURVE",
"21 275 OFFCURVE",
"15 175 CURVE SMOOTH",
"9 73 OFFCURVE",
"72 -12 OFFCURVE",
"204 -12 CURVE SMOOTH",
"300 -12 OFFCURVE",
"373 26 OFFCURVE",
"443 86 CURVE"
);
},
{
closed = 1;
nodes = (
"304 428 OFFCURVE",
"260 484 OFFCURVE",
"272 540 CURVE SMOOTH",
"282 585 OFFCURVE",
"317 607 OFFCURVE",
"365 609 CURVE SMOOTH",
"434 612 OFFCURVE",
"458 571 OFFCURVE",
"453 530 CURVE SMOOTH",
"447 476 OFFCURVE",
"380 439 OFFCURVE",
"312 416 CURVE"
);
},
{
closed = 1;
nodes = (
"400 145 LINE",
"339 96 OFFCURVE",
"282 66 OFFCURVE",
"212 66 CURVE SMOOTH",
"141 66 OFFCURVE",
"92 107 OFFCURVE",
"102 185 CURVE SMOOTH",
"111 257 OFFCURVE",
"177 305 OFFCURVE",
"263 333 CURVE"
);
}
);
width = 691;
}
);
leftMetricsKey = c;
rightMetricsKey = k;
unicode = 0026;
},
{
color = (255,153,254,255);
glyphname = quotesingle;
layers = (
{
layerId = "678C5AFE-F8DA-443A-BB17-9B03ED7099AB";
paths = (
{
closed = 1;
nodes = (
"109 447 LINE",
"161 447 LINE",
"175 668 LINE",
"95 668 LINE"
);
}
);
width = 193;
}
);
leftKerningGroup = quotesingle;
rightKerningGroup = quotesingle_2;
unicode = 0027;
},
{
color = (255,153,254,255);
glyphname = parenleft;
layers = (
{
layerId = "678C5AFE-F8DA-443A-BB17-9B03ED7099AB";
paths = (
{
closed = 1;
nodes = (
"171 -162 LINE",
"34 166 OFFCURVE",
"145 431 OFFCURVE",
"338 668 CURVE",
"259 668 LINE",
"36 421 OFFCURVE",
"-35 131 OFFCURVE",
"94 -162 CURVE"
);
}
);
width = 302;
}
);
leftMetricsKey = O;
unicode = 0028;
},
{
color = (255,153,254,255);
glyphname = parenright;
layers = (
{
layerId = "678C5AFE-F8DA-443A-BB17-9B03ED7099AB";
paths = (
{
closed = 1;
nodes = (
"28 -162 LINE",
"250 85 OFFCURVE",
"320 376 OFFCURVE",
"192 668 CURVE",
"115 668 LINE",
"252 340 OFFCURVE",
"141 75 OFFCURVE",
"-53 -162 CURVE"
);
}
);
width = 304;
}
);
rightMetricsKey = O;
unicode = 0029;
},
{
color = (255,153,254,255);
glyphname = asterisk;
lastChange = "2021-04-20 16:20:30 +0000";
layers = (
{
layerId = "678C5AFE-F8DA-443A-BB17-9B03ED7099AB";
paths = (
{
closed = 1;
nodes = (
"119 442 LINE",
"157 399 LINE",
"236 470 LINE",
"280 373 LINE",
"332 396 LINE",
"289 493 LINE",
"395 505 LINE",
"388 561 LINE",
"283 550 LINE",
"305 655 LINE",
"249 667 LINE",
"227 562 LINE",
"135 615 LINE",
"106 566 LINE",
"198 513 LINE"
);
}
);
width = 439;
}
);
leftMetricsKey = "=u-20";
rightMetricsKey = "=u+20";
unicode = 002A;
},
{
color = (255,153,254,255);
glyphname = plus;
layers = (
{
layerId = "678C5AFE-F8DA-443A-BB17-9B03ED7099AB";
paths = (
{
closed = 1;
nodes = (
"42 208 LINE",
"250 208 LINE",
"250 0 LINE",
"330 0 LINE",
"330 208 LINE",
"538 208 LINE",
"538 288 LINE",
"330 288 LINE",
"330 496 LINE",
"250 496 LINE",
"250 288 LINE",
"42 288 LINE"
);
}
);
width = 619;
}
);
unicode = 002B;
},
{
color = (255,153,254,255);
glyphname = comma;
lastChange = "2021-04-20 16:20:21 +0000";
layers = (
{
associatedMasterId = "678C5AFE-F8DA-443A-BB17-9B03ED7099AB";
layerId = "9A81351E-D76C-4104-B183-E6785B4ABE51";
name = Regular;
paths = (
{
closed = 1;
nodes = (
"-43 -133 LINE",
"18 -133 LINE",
"108 18 LINE",
"134 58 OFFCURVE",
"109 108 OFFCURVE",
"65 116 CURVE SMOOTH",
"30 122 OFFCURVE",
"-3 99 OFFCURVE",
"-10 64 CURVE",
"-15 32 OFFCURVE",
"3 2 OFFCURVE",
"32 -8 CURVE"
);
}
);
width = 209;
},
{
layerId = "678C5AFE-F8DA-443A-BB17-9B03ED7099AB";
width = 600;
}
);
leftKerningGroup = period;
rightKerningGroup = period_2;
unicode = 002C;
},
{
color = (255,153,254,255);
glyphname = hyphen;
lastChange = "2021-04-20 16:20:30 +0000";
layers = (
{
layerId = "678C5AFE-F8DA-443A-BB17-9B03ED7099AB";
paths = (
{
closed = 1;
nodes = (
"20 208 LINE",
"312 208 LINE",
"330 289 LINE",
"38 289 LINE"
);
}
);
width = 368;
}
);
leftKerningGroup = hyphen;
leftMetricsKey = o;
rightKerningGroup = hyphen_2;
rightMetricsKey = o;
unicode = 002D;
},
{
color = (255,153,254,255);
glyphname = period;
lastChange = "2021-04-20 16:20:30 +0000";
layers = (
{
layerId = "678C5AFE-F8DA-443A-BB17-9B03ED7099AB";
paths = (
{
closed = 1;
nodes = (
"99 -12 OFFCURVE",
"128 17 OFFCURVE",
"128 52 CURVE SMOOTH",
"128 88 OFFCURVE",
"99 117 OFFCURVE",
"63 117 CURVE SMOOTH",
"28 117 OFFCURVE",
"-1 88 OFFCURVE",
"-1 52 CURVE SMOOTH",
"-1 17 OFFCURVE",
"28 -12 OFFCURVE",
"63 -12 CURVE SMOOTH"
);
}
);
width = 208;
}
);
leftKerningGroup = period;
leftMetricsKey = "=o+10";
rightKerningGroup = period_2;
rightMetricsKey = "=o-10";
unicode = 002E;
},
{
color = (255,153,254,255);
glyphname = slash;
layers = (
{
layerId = "678C5AFE-F8DA-443A-BB17-9B03ED7099AB";
paths = (
{
closed = 1;
nodes = (
"-50 0 LINE",
"37 0 LINE",
"439 668 LINE",
"352 668 LINE"
);
}
);
width = 371;
}
);
unicode = 002F;
},
{
color = (255,153,254,255);
glyphname = braceleft;
lastChange = "2021-04-20 16:20:30 +0000";
layers = (
{
layerId = "678C5AFE-F8DA-443A-BB17-9B03ED7099AB";
paths = (
{
closed = 1;
nodes = (
"192 -162 LINE",
"207 -91 LINE",
"166 -91 LINE SMOOTH",
"121 -91 OFFCURVE",
"117 -78 OFFCURVE",
"128 -26 CURVE SMOOTH",
"160 127 LINE SMOOTH",
"178 212 OFFCURVE",
"154 240 OFFCURVE",
"108 253 CURVE",
"159 266 OFFCURVE",
"196 296 OFFCURVE",
"214 380 CURVE SMOOTH",
"247 532 LINE SMOOTH",
"258 583 OFFCURVE",
"268 596 OFFCURVE",
"312 596 CURVE SMOOTH",
"353 596 LINE",
"368 667 LINE",
"322 667 LINE SMOOTH",
"206 667 OFFCURVE",
"183 640 OFFCURVE",
"159 531 CURVE",
"128 381 LINE SMOOTH",
"116 324 OFFCURVE",
"99 287 OFFCURVE",
"37 287 CURVE",
"23 220 LINE",
"85 220 OFFCURVE",
"85 182 OFFCURVE",
"73 125 CURVE SMOOTH",
"41 -25 LINE SMOOTH",
"21 -120 OFFCURVE",
"38 -162 OFFCURVE",
"147 -162 CURVE SMOOTH"
);
}
);
width = 322;
}
);
leftMetricsKey = o;
unicode = 007B;
},
{
color = (255,153,254,255);
glyphname = bar;
layers = (
{
layerId = "678C5AFE-F8DA-443A-BB17-9B03ED7099AB";
paths = (
{
closed = 1;
nodes = (
"96 -161 LINE",
"177 -161 LINE",
"177 668 LINE",
"96 668 LINE"
);
}
);
width = 289;
}
);
leftMetricsKey = "=N-60";
rightMetricsKey = "=N-60";
unicode = 007C;
},
{
color = (255,153,254,255);
glyphname = braceright;
layers = (
{
layerId = "678C5AFE-F8DA-443A-BB17-9B03ED7099AB";
paths = (
{
closed = 1;
nodes = (
"-62 -162 LINE",
"-17 -162 LINE SMOOTH",
"100 -162 OFFCURVE",
"123 -135 OFFCURVE",
"147 -25 CURVE SMOOTH",
"179 124 LINE SMOOTH",
"191 181 OFFCURVE",
"207 220 OFFCURVE",
"268 220 CURVE",
"283 287 LINE",
"222 287 OFFCURVE",
"221 323 OFFCURVE",
"234 381 CURVE",
"265 531 LINE SMOOTH",
"284 625 OFFCURVE",
"268 667 OFFCURVE",
"160 667 CURVE SMOOTH",
"114 667 LINE",
"99 596 LINE",
"141 596 LINE SMOOTH",
"185 596 OFFCURVE",
"190 583 OFFCURVE",
"179 532 CURVE SMOOTH",
"146 379 LINE SMOOTH",
"128 295 OFFCURVE",
"153 266 OFFCURVE",
"199 253 CURVE",
"147 240 OFFCURVE",
"110 211 OFFCURVE",
"92 126 CURVE SMOOTH",
"60 -26 LINE SMOOTH",
"49 -78 OFFCURVE",
"39 -91 OFFCURVE",
"-5 -91 CURVE SMOOTH",
"-47 -91 LINE"
);
}
);
width = 322;
}
);
rightMetricsKey = o;
unicode = 007D;
},
{
color = (255,153,254,255);
glyphname = asciitilde;
layers = (
{
layerId = "678C5AFE-F8DA-443A-BB17-9B03ED7099AB";
paths = (
{
closed = 1;
nodes = (
"100 199 LINE",
"106 232 OFFCURVE",
"131 249 OFFCURVE",
"164 249 CURVE SMOOTH",
"224 249 OFFCURVE",
"292 195 OFFCURVE",
"364 195 CURVE SMOOTH",
"435 195 OFFCURVE",
"485 236 OFFCURVE",
"500 297 CURVE",
"426 319 LINE",
"419 285 OFFCURVE",
"394 268 OFFCURVE",
"363 268 CURVE SMOOTH",
"310 268 OFFCURVE",
"245 323 OFFCURVE",
"162 323 CURVE SMOOTH",
"90 323 OFFCURVE",
"40 282 OFFCURVE",
"25 221 CURVE"
);
}
);
width = 539;
}
);
unicode = 007E;
},
{
color = (255,153,254,255);
glyphname = exclamdown;
lastChange = "2021-04-20 16:20:30 +0000";
layers = (
{
layerId = "678C5AFE-F8DA-443A-BB17-9B03ED7099AB";
paths = (
{
closed = 1;
nodes = (
"0 -161 LINE",
"91 -161 LINE",
"128 12 LINE",
"174 311 LINE",
"119 311 LINE",
"37 12 LINE"
);
},
{
closed = 1;
nodes = (
"112 419 OFFCURVE",
"141 390 OFFCURVE",
"177 390 CURVE SMOOTH",
"212 390 OFFCURVE",
"241 419 OFFCURVE",
"241 455 CURVE SMOOTH",
"241 490 OFFCURVE",
"212 519 OFFCURVE",
"177 519 CURVE SMOOTH",
"141 519 OFFCURVE",
"112 490 OFFCURVE",
"112 455 CURVE SMOOTH"
);
}
);
width = 283;
}
);
leftMetricsKey = exclam;
rightMetricsKey = exclam;
unicode = 00A1;
},
{
color = (255,153,254,255);
glyphname = cent;
lastChange = "2021-04-20 16:20:30 +0000";
layers = (
{
layerId = "678C5AFE-F8DA-443A-BB17-9B03ED7099AB";
paths = (
{
closed = 1;
nodes = (
"157 -87 LINE",
"208 -87 LINE",
"224 -12 LINE",
"311 -11 OFFCURVE",
"389 25 OFFCURVE",
"433 98 CURVE",
"362 127 LINE",
"332 87 OFFCURVE",
"293 62 OFFCURVE",
"240 61 CURVE",
"318 427 LINE",
"356 420 OFFCURVE",
"386 397 OFFCURVE",
"397 364 CURVE",
"480 392 LINE",
"451 454 OFFCURVE",
"402 491 OFFCURVE",
"332 501 CURVE",
"347 571 LINE",
"297 571 LINE",
"283 503 LINE",
"144 497 OFFCURVE",
"51 389 OFFCURVE",
"29 247 CURVE SMOOTH",
"8 109 OFFCURVE",
"63 12 OFFCURVE",
"174 -8 CURVE"
);
},
{
closed = 1;
nodes = (
"190 68 LINE",
"121 91 OFFCURVE",
"107 165 OFFCURVE",
"120 248 CURVE SMOOTH",
"133 329 OFFCURVE",
"176 414 OFFCURVE",
"267 428 CURVE"
);
}
);
width = 492;
}
);
leftMetricsKey = c;
rightMetricsKey = c;
unicode = 00A2;
},
{
color = (255,153,254,255);
glyphname = sterling;
lastChange = "2021-04-20 16:20:30 +0000";
layers = (
{
layerId = "678C5AFE-F8DA-443A-BB17-9B03ED7099AB";
paths = (
{
closed = 1;
nodes = (
"35 -12 LINE",
"276 97 OFFCURVE",
"259 -79 OFFCURVE",
"497 18 CURVE",
"487 91 LINE",
"291 15 OFFCURVE",
"290 139 OFFCURVE",
"150 90 CURVE",
"233 133 OFFCURVE",
"302 209 OFFCURVE",
"277 317 CURVE",
"457 317 LINE",
"468 368 LINE",
"265 368 LINE",
"251 415 OFFCURVE",
"238 459 OFFCURVE",
"245 507 CURVE SMOOTH",
"257 586 OFFCURVE",
"325 608 OFFCURVE",
"382 608 CURVE SMOOTH",
"451 608 OFFCURVE",
"485 590 OFFCURVE",
"508 526 CURVE",
"591 549 LINE",
"570 634 OFFCURVE",
"492 679 OFFCURVE",
"386 679 CURVE SMOOTH",
"280 679 OFFCURVE",
"167 634 OFFCURVE",
"154 511 CURVE SMOOTH",
"149 457 OFFCURVE",
"159 413 OFFCURVE",
"172 368 CURVE",
"86 368 LINE",
"75 317 LINE",
"185 317 LINE",
"227 157 OFFCURVE",
"73 74 OFFCURVE",
"22 55 CURVE"
);
}
);
width = 585;
}
);
leftMetricsKey = l;
rightMetricsKey = R;
unicode = 00A3;
},
{
color = (255,153,254,255);
glyphname = currency;
layers = (
{
layerId = "678C5AFE-F8DA-443A-BB17-9B03ED7099AB";
paths = (
{
closed = 1;
nodes = (
"102 119 LINE",
"138 84 LINE",
"204 149 LINE",
"244 118 OFFCURVE",
"291 103 OFFCURVE",
"339 103 CURVE SMOOTH",
"387 103 OFFCURVE",
"435 118 OFFCURVE",
"474 149 CURVE",
"540 84 LINE",
"576 119 LINE",
"510 185 LINE",
"542 225 OFFCURVE",
"557 273 OFFCURVE",
"557 321 CURVE SMOOTH",
"557 369 OFFCURVE",
"542 417 OFFCURVE",
"510 456 CURVE",
"576 522 LINE",
"540 558 LINE",
"474 492 LINE",
"435 524 OFFCURVE",
"387 539 OFFCURVE",
"339 539 CURVE SMOOTH",
"291 539 OFFCURVE",
"244 524 OFFCURVE",
"204 492 CURVE",
"138 558 LINE",
"102 522 LINE",
"168 456 LINE",
"137 417 OFFCURVE",
"121 369 OFFCURVE",
"121 321 CURVE SMOOTH",
"121 273 OFFCURVE",
"137 225 OFFCURVE",
"168 185 CURVE"
);
},
{
closed = 1;
nodes = (
"260 178 OFFCURVE",
"197 242 OFFCURVE",
"197 321 CURVE SMOOTH",
"197 399 OFFCURVE",
"260 463 OFFCURVE",
"339 463 CURVE SMOOTH",
"418 463 OFFCURVE",
"481 399 OFFCURVE",
"481 321 CURVE SMOOTH",
"481 242 OFFCURVE",
"418 178 OFFCURVE",
"339 178 CURVE SMOOTH"
);
}
);
width = 666;
}
);
unicode = 00A4;
},
{
color = (255,153,254,255);
glyphname = yen;
layers = (
{
layerId = "678C5AFE-F8DA-443A-BB17-9B03ED7099AB";
paths = (
{
closed = 1;
nodes = (
"47 86 LINE",
"196 86 LINE",
"178 0 LINE",
"275 0 LINE",
"293 86 LINE",
"439 86 LINE",
"450 137 LINE",
"304 137 LINE",
"322 223 LINE",
"468 223 LINE",
"479 274 LINE",
"352 274 LINE",
"668 668 LINE",
"554 668 LINE",
"291 329 LINE",
"186 668 LINE",
"90 668 LINE",
"218 274 LINE",
"87 274 LINE",
"76 223 LINE",
"225 223 LINE",
"207 137 LINE",
"58 137 LINE"
);
}
);
width = 598;
}
);
leftMetricsKey = Y;
rightMetricsKey = Y;
unicode = 00A5;
},
{
color = (255,153,254,255);
glyphname = brokenbar;
layers = (
{
layerId = "678C5AFE-F8DA-443A-BB17-9B03ED7099AB";
paths = (
{
closed = 1;
nodes = (
"96 358 LINE",
"177 358 LINE",
"177 668 LINE",
"96 668 LINE"
);
},
{
closed = 1;
nodes = (
"96 -161 LINE",
"177 -161 LINE",
"177 149 LINE",
"96 149 LINE"
);
}
);
width = 289;
}
);
leftMetricsKey = "=N-60";
rightMetricsKey = "=N-60";
unicode = 00A6;
},
{
color = (255,153,254,255);
glyphname = section;
layers = (
{
layerId = "678C5AFE-F8DA-443A-BB17-9B03ED7099AB";
paths = (
{
closed = 1;
nodes = (
"-43 -55 LINE",
"-26 -128 OFFCURVE",
"41 -174 OFFCURVE",
"135 -174 CURVE SMOOTH",
"320 -174 OFFCURVE",
"380 -1 OFFCURVE",
"313 82 CURVE",
"409 113 OFFCURVE",
"487 170 OFFCURVE",
"487 272 CURVE",
"487 342 OFFCURVE",
"430 373 OFFCURVE",
"371 422 CURVE SMOOTH",
"309 474 OFFCURVE",
"255 499 OFFCURVE",
"267 554 CURVE SMOOTH",
"283 628 OFFCURVE",
"441 632 OFFCURVE",
"454 561 CURVE",
"537 584 LINE",
"517 652 OFFCURVE",
"438 680 OFFCURVE",
"366 680 CURVE SMOOTH",
"185 680 OFFCURVE",
"137 509 OFFCURVE",
"213 435 CURVE",
"117 415 OFFCURVE",
"39 353 OFFCURVE",
"39 256 CURVE SMOOTH",
"39 186 OFFCURVE",
"90 150 OFFCURVE",
"152 102 CURVE SMOOTH",
"214 54 OFFCURVE",
"265 19 OFFCURVE",
"248 -40 CURVE SMOOTH",
"226 -118 OFFCURVE",
"55 -131 OFFCURVE",
"43 -32 CURVE"
);
},
{
closed = 1;
nodes = (
"266 129 OFFCURVE",
"192 188 OFFCURVE",
"166 208 CURVE SMOOTH",
"74 279 OFFCURVE",
"151 367 OFFCURVE",
"260 391 CURVE",
"260 391 OFFCURVE",
"323 342 OFFCURVE",
"346 323 CURVE SMOOTH",
"437 248 OFFCURVE",
"404 171 OFFCURVE",
"266 129 CURVE"
);
}
);
width = 526;
}
);
leftMetricsKey = s;
rightMetricsKey = s;
unicode = 00A7;
},
{
color = (255,153,254,255);
glyphname = dieresis;
layers = (
{
layerId = "678C5AFE-F8DA-443A-BB17-9B03ED7099AB";
paths = (
{
closed = 1;
nodes = (
"213 590 OFFCURVE",
"237 614 OFFCURVE",
"237 644 CURVE SMOOTH",
"237 673 OFFCURVE",
"213 697 OFFCURVE",
"183 697 CURVE SMOOTH",
"153 697 OFFCURVE",
"129 673 OFFCURVE",
"129 644 CURVE SMOOTH",
"129 614 OFFCURVE",
"153 590 OFFCURVE",
"183 590 CURVE SMOOTH"
);
},
{
closed = 1;
nodes = (
"424 590 OFFCURVE",
"448 614 OFFCURVE",
"448 644 CURVE SMOOTH",
"448 673 OFFCURVE",
"424 697 OFFCURVE",
"394 697 CURVE SMOOTH",
"365 697 OFFCURVE",
"341 673 OFFCURVE",
"341 644 CURVE SMOOTH",
"341 614 OFFCURVE",
"365 590 OFFCURVE",
"394 590 CURVE SMOOTH"
);
}
);
width = 427;
}
);
unicode = 00A8;
},
{
color = (255,153,254,255);
glyphname = copyright;
layers = (
{
layerId = "678C5AFE-F8DA-443A-BB17-9B03ED7099AB";
paths = (
{
closed = 1;
nodes = (
"607 -12 OFFCURVE",
"762 143 OFFCURVE",
"762 334 CURVE SMOOTH",
"762 525 OFFCURVE",
"607 680 OFFCURVE",
"416 680 CURVE SMOOTH",
"225 680 OFFCURVE",
"70 525 OFFCURVE",
"70 334 CURVE SMOOTH",
"70 143 OFFCURVE",
"225 -12 OFFCURVE",
"416 -12 CURVE SMOOTH"
);
},
{
closed = 1;
nodes = (
"501 254 LINE",
"483 221 OFFCURVE",
"451 209 OFFCURVE",
"418 209 CURVE SMOOTH",
"361 209 OFFCURVE",
"320 252 OFFCURVE",
"320 342 CURVE SMOOTH",
"320 431 OFFCURVE",
"361 473 OFFCURVE",
"418 473 CURVE SMOOTH",
"452 473 OFFCURVE",
"481 456 OFFCURVE",
"498 424 CURVE",
"565 449 LINE",
"540 497 OFFCURVE",
"492 531 OFFCURVE",
"420 531 CURVE SMOOTH",
"312 531 OFFCURVE",
"244 460 OFFCURVE",
"244 342 CURVE SMOOTH",
"244 223 OFFCURVE",
"306 150 OFFCURVE",
"418 150 CURVE SMOOTH",
"492 150 OFFCURVE",
"541 185 OFFCURVE",
"567 230 CURVE"
);
},
{
closed = 1;
nodes = (
"259 50 OFFCURVE",
"132 177 OFFCURVE",
"132 334 CURVE SMOOTH",
"132 491 OFFCURVE",
"259 618 OFFCURVE",
"416 618 CURVE SMOOTH",
"573 618 OFFCURVE",
"700 491 OFFCURVE",
"700 334 CURVE SMOOTH",
"700 177 OFFCURVE",
"573 50 OFFCURVE",
"416 50 CURVE SMOOTH"
);
}
);
width = 814;
}
);
unicode = 00A9;
},
{
color = (255,153,254,255);
glyphname = questiondown;
layers = (
{
layerId = "678C5AFE-F8DA-443A-BB17-9B03ED7099AB";
paths = (
{
closed = 1;
nodes = (
"358 388 OFFCURVE",
"387 417 OFFCURVE",
"387 452 CURVE SMOOTH",
"387 488 OFFCURVE",
"358 517 OFFCURVE",
"322 517 CURVE SMOOTH",
"286 517 OFFCURVE",
"259 488 OFFCURVE",
"259 452 CURVE SMOOTH",
"259 417 OFFCURVE",
"286 388 OFFCURVE",
"322 388 CURVE SMOOTH"
);
},
{
closed = 1;
nodes = (
"344 5 LINE",
"320 -66 OFFCURVE",
"264 -105 OFFCURVE",
"182 -105 CURVE SMOOTH",
"118 -105 OFFCURVE",
"69 -67 OFFCURVE",
"78 -8 CURVE",
"86 36 OFFCURVE",
"128 63 OFFCURVE",
"169 84 CURVE SMOOTH",
"246 124 OFFCURVE",
"307 165 OFFCURVE",
"332 279 CURVE SMOOTH",
"340 316 LINE",
"255 316 LINE",
"248 282 LINE SMOOTH",
"237 231 OFFCURVE",
"215 191 OFFCURVE",
"139 154 CURVE SMOOTH",
"69 120 OFFCURVE",
"-2 74 OFFCURVE",
"-12 -3 CURVE SMOOTH",
"-29 -132 OFFCURVE",
"85 -175 OFFCURVE",
"179 -175 CURVE SMOOTH",
"291 -175 OFFCURVE",
"383 -125 OFFCURVE",
"421 -19 CURVE"
);
}
);
width = 527;
}
);
unicode = 00BF;
},
{
color = (255,153,254,255);
glyphname = grave.case;
layers = (
{
layerId = "678C5AFE-F8DA-443A-BB17-9B03ED7099AB";
paths = (
{
closed = 1;
nodes = (
"321 744 LINE",
"248 744 LINE",
"187 789 OFFCURVE",
"168 803 OFFCURVE",
"168 828 CURVE SMOOTH",
"168 840 OFFCURVE",
"177 864 OFFCURVE",
"204 864 CURVE",
"204 864 OFFCURVE",
"225 864 OFFCURVE",
"237 847 CURVE"
);
}
);
width = 278;
}
);
},
{
color = (255,153,254,255);
glyphname = acute.case;
layers = (
{
layerId = "678C5AFE-F8DA-443A-BB17-9B03ED7099AB";
paths = (
{
closed = 1;
nodes = (
"230 744 LINE",
"240 749 OFFCURVE",
"313 784 OFFCURVE",
"328 794 CURVE SMOOTH",
"337 800 OFFCURVE",
"347 811 OFFCURVE",
"347 828 CURVE SMOOTH",
"347 856 OFFCURVE",
"315 876 OFFCURVE",
"285 855 CURVE SMOOTH",
"266 842 OFFCURVE",
"159 752 OFFCURVE",
"149 744 CURVE"
);
}
);
width = 287;
}
);
},
{
color = (255,153,254,255);
glyphname = germandbls;
lastChange = "2021-04-20 16:20:30 +0000";
layers = (
{
layerId = "678C5AFE-F8DA-443A-BB17-9B03ED7099AB";
paths = (
{
closed = 1;
nodes = (
"14 0 LINE",
"100 0 LINE",
"196 452 LINE SMOOTH",
"220 567 OFFCURVE",
"271 610 OFFCURVE",
"374 610 CURVE SMOOTH",
"448 610 OFFCURVE",
"487 574 OFFCURVE",
"483 514 CURVE SMOOTH",
"479 446 OFFCURVE",
"405 406 OFFCURVE",
"305 406 CURVE",
"289 329 LINE",
"403 329 OFFCURVE",
"462 294 OFFCURVE",
"453 200 CURVE SMOOTH",
"442 88 OFFCURVE",
"346 52 OFFCURVE",
"233 67 CURVE",
"239 -12 LINE",
"388 -21 OFFCURVE",
"540 38 OFFCURVE",
"548 197 CURVE SMOOTH",
"553 297 OFFCURVE",
"517 343 OFFCURVE",
"439 372 CURVE",
"523 389 OFFCURVE",
"566 456 OFFCURVE",
"570 524 CURVE SMOOTH",
"576 632 OFFCURVE",
"485 680 OFFCURVE",
"378 680 CURVE SMOOTH",
"167 680 OFFCURVE",
"131 547 OFFCURVE",
"110 452 CURVE"
);
}
);
width = 605;
}
);
leftMetricsKey = B;
rightMetricsKey = B;
unicode = 00DF;
},
{
color = (255,153,254,255);
glyphname = AE;
lastChange = "2021-04-20 16:20:30 +0000";
layers = (
{
layerId = "678C5AFE-F8DA-443A-BB17-9B03ED7099AB";
paths = (
{
closed = 1;
nodes = (
"-52 0 LINE",
"60 0 LINE",
"194 145 LINE",
"466 145 LINE",
"435 0 LINE",
"891 0 LINE",
"908 81 LINE",
"549 81 LINE",
"596 303 LINE",
"862 303 LINE",
"879 383 LINE",
"613 383 LINE",
"656 586 LINE",
"1015 586 LINE",
"1032 667 LINE",
"577 667 LINE"
);
},
{
closed = 1;
nodes = (
"267 226 LINE",
"548 529 LINE",
"483 226 LINE"
);
}
);
width = 987;
}
);
leftMetricsKey = A;
rightKerningGroup = E;
rightMetricsKey = E;
unicode = 00C6;
},
{
color = (255,153,254,255);
glyphname = florin;
layers = (
{
layerId = "678C5AFE-F8DA-443A-BB17-9B03ED7099AB";
paths = (
{
closed = 1;
nodes = (
"-72 -165 LINE",
"52 -191 OFFCURVE",
"101 -153 OFFCURVE",
"125 -38 CURVE SMOOTH",
"224 428 LINE",
"325 428 LINE",
"339 496 LINE",
"237 496 LINE",
"253 570 LINE SMOOTH",
"264 620 OFFCURVE",
"290 635 OFFCURVE",
"328 635 CURVE SMOOTH",
"368 635 LINE",
"384 706 LINE",
"335 706 LINE SMOOTH",
"217 706 OFFCURVE",
"190 676 OFFCURVE",
"165 555 CURVE SMOOTH",
"153 496 LINE",
"69 496 LINE",
"54 428 LINE",
"138 428 LINE",
"42 -24 LINE SMOOTH",
"31 -76 OFFCURVE",
"14 -107 OFFCURVE",
"-56 -90 CURVE"
);
}
);
width = 330;
}
);
leftMetricsKey = "=f+10";
rightMetricsKey = f;
unicode = 0192;
},
{
color = (255,153,254,255);
glyphname = integral;
layers = (
{
layerId = "678C5AFE-F8DA-443A-BB17-9B03ED7099AB";
paths = (
{
closed = 1;
nodes = (
"68 -122 OFFCURVE",
"68 -117 OFFCURVE",
"68 -112 CURVE SMOOTH",
"68 -85 OFFCURVE",
"48 -61 OFFCURVE",
"19 -61 CURVE SMOOTH",
"-9 -61 OFFCURVE",
"-31 -84 OFFCURVE",
"-31 -111 CURVE SMOOTH",
"-31 -158 OFFCURVE",
"10 -173 OFFCURVE",
"54 -173 CURVE SMOOTH",
"114 -173 OFFCURVE",
"187 -142 OFFCURVE",
"187 44 CURVE SMOOTH",
"187 538 LINE SMOOTH",
"187 640 OFFCURVE",
"224 635 OFFCURVE",
"224 635 CURVE",
"222 630 OFFCURVE",
"221 624 OFFCURVE",
"221 619 CURVE SMOOTH",
"221 593 OFFCURVE",
"242 569 OFFCURVE",
"271 569 CURVE SMOOTH",
"299 569 OFFCURVE",
"321 591 OFFCURVE",
"321 619 CURVE SMOOTH",
"321 666 OFFCURVE",
"280 681 OFFCURVE",
"236 681 CURVE SMOOTH",
"176 681 OFFCURVE",
"103 649 OFFCURVE",
"103 464 CURVE SMOOTH",
"103 -31 LINE SMOOTH",
"103 -132 OFFCURVE",
"66 -127 OFFCURVE",
"66 -127 CURVE"
);
}
);
width = 306;
}
);
unicode = 222B;
},
{
color = (255,153,254,255);
glyphname = approxequal;
layers = (
{
layerId = "678C5AFE-F8DA-443A-BB17-9B03ED7099AB";
paths = (
{
closed = 1;
nodes = (
"132 287 LINE",
"138 320 OFFCURVE",
"163 337 OFFCURVE",
"196 337 CURVE SMOOTH",
"256 337 OFFCURVE",
"324 283 OFFCURVE",
"396 283 CURVE SMOOTH",
"467 283 OFFCURVE",
"517 324 OFFCURVE",
"532 385 CURVE",
"458 407 LINE",
"451 374 OFFCURVE",
"426 356 OFFCURVE",
"396 356 CURVE SMOOTH",
"344 356 OFFCURVE",
"279 411 OFFCURVE",
"196 411 CURVE SMOOTH",
"123 411 OFFCURVE",
"73 370 OFFCURVE",
"57 309 CURVE"
);
},
{
closed = 1;
nodes = (
"132 101 LINE",
"138 134 OFFCURVE",
"163 151 OFFCURVE",
"196 151 CURVE SMOOTH",
"256 151 OFFCURVE",
"324 97 OFFCURVE",
"396 97 CURVE SMOOTH",
"467 97 OFFCURVE",
"517 138 OFFCURVE",
"532 199 CURVE",
"458 221 LINE",
"451 187 OFFCURVE",
"426 170 OFFCURVE",
"395 170 CURVE SMOOTH",
"342 170 OFFCURVE",
"277 225 OFFCURVE",
"194 225 CURVE SMOOTH",
"122 225 OFFCURVE",
"72 184 OFFCURVE",
"57 123 CURVE"
);
}
);
width = 605;
}
);
unicode = 2248;
},
{
color = (255,153,254,255);
glyphname = notequal;
layers = (
{
layerId = "678C5AFE-F8DA-443A-BB17-9B03ED7099AB";
paths = (
{
closed = 1;
nodes = (
"97 0 LINE",
"197 0 LINE",
"282 121 LINE",
"569 121 LINE",
"569 200 LINE",
"337 200 LINE",
"412 307 LINE",
"569 307 LINE",
"569 387 LINE",
"468 387 LINE",
"544 496 LINE",
"445 496 LINE",
"368 387 LINE",
"73 387 LINE",
"73 307 LINE",
"312 307 LINE",
"238 200 LINE",
"73 200 LINE",
"73 121 LINE",
"182 121 LINE"
);
}
);
width = 658;
}
);
unicode = 2260;
},
{
color = (255,153,254,255);
glyphname = lessequal;
layers = (
{
layerId = "678C5AFE-F8DA-443A-BB17-9B03ED7099AB";
paths = (
{
closed = 1;
nodes = (
"63 267 LINE",
"536 100 LINE",
"536 190 LINE",
"168 302 LINE",
"536 414 LINE",
"536 505 LINE",
"63 337 LINE"
);
},
{
closed = 1;
nodes = (
"63 0 LINE",
"536 0 LINE",
"536 80 LINE",
"63 80 LINE"
);
}
);
width = 651;
}
);
unicode = 2264;
},
{
color = (255,153,254,255);
glyphname = greaterequal;
layers = (
{
layerId = "678C5AFE-F8DA-443A-BB17-9B03ED7099AB";
paths = (
{
closed = 1;
nodes = (
"98 100 LINE",
"571 267 LINE",
"571 337 LINE",
"98 505 LINE",
"98 414 LINE",
"466 302 LINE",
"98 190 LINE"
);
},
{
closed = 1;
nodes = (
"98 0 LINE",
"571 0 LINE",
"571 80 LINE",
"98 80 LINE"
);
}
);
width = 686;
}
);
unicode = 2265;
},
{
color = (255,153,254,255);
glyphname = lozenge;
layers = (
{
layerId = "678C5AFE-F8DA-443A-BB17-9B03ED7099AB";
paths = (
{
closed = 1;
nodes = (
"286 -73 LINE",
"513 315 LINE",
"286 703 LINE",
"58 315 LINE"
);
},
{
closed = 1;
nodes = (
"286 76 LINE",
"145 315 LINE",
"286 554 LINE",
"426 315 LINE"
);
}
);
width = 561;
}
);
unicode = 25CA;
},
{
color = (255,153,254,255);
glyphname = summation;
layers = (
{
layerId = "678C5AFE-F8DA-443A-BB17-9B03ED7099AB";
paths = (
{
closed = 1;
nodes = (
"123 -161 LINE",
"604 -161 LINE",
"604 -80 LINE",
"224 -80 LINE",
"469 254 LINE",
"224 587 LINE",
"604 587 LINE",
"604 668 LINE",
"123 668 LINE",
"123 587 LINE",
"369 254 LINE",
"123 -80 LINE"
);
}
);
width = 763;
}
);
unicode = 2211;
},
{
color = (255,153,254,255);
glyphname = minus;
layers = (
{
layerId = "678C5AFE-F8DA-443A-BB17-9B03ED7099AB";
paths = (
{
closed = 1;
nodes = (
"42 209 LINE",
"538 209 LINE",
"538 288 LINE",
"42 288 LINE"
);
}
);
width = 619;
}
);
unicode = 2212;
},
{
color = (255,153,254,255);
glyphname = uni2215;
layers = (
{
layerId = "678C5AFE-F8DA-443A-BB17-9B03ED7099AB";
paths = (
{
closed = 1;
nodes = (
"-47 0 LINE",
"41 0 LINE",
"509 668 LINE",
"421 668 LINE"
);
}
);
width = 444;
}
);
unicode = 2215;
},
{
color = (255,153,254,255);
glyphname = uni2219;
layers = (
{
layerId = "678C5AFE-F8DA-443A-BB17-9B03ED7099AB";
paths = (
{
closed = 1;
nodes = (
"46 223 OFFCURVE",
"71 191 OFFCURVE",
"111 191 CURVE SMOOTH",
"146 191 OFFCURVE",
"175 221 OFFCURVE",
"175 256 CURVE SMOOTH",
"175 291 OFFCURVE",
"145 320 OFFCURVE",
"111 320 CURVE SMOOTH",
"75 320 OFFCURVE",
"46 291 OFFCURVE",
"46 255 CURVE SMOOTH"
);
}
);
width = 237;
}
);
unicode = 2219;
},
{
color = (255,153,254,255);
glyphname = radical;
layers = (
{
layerId = "678C5AFE-F8DA-443A-BB17-9B03ED7099AB";
paths = (
{
closed = 1;
nodes = (
"265 -161 LINE",
"364 -161 LINE",
"515 669 LINE",
"427 669 LINE",
"304 -37 LINE",
"201 225 LINE",
"39 225 LINE",
"39 145 LINE",
"145 145 LINE"
);
}
);
width = 513;
}
);
unicode = 221A;
},
{
color = (255,153,254,255);
glyphname = infinity;
layers = (
{
layerId = "678C5AFE-F8DA-443A-BB17-9B03ED7099AB";
paths = (
{
closed = 1;
nodes = (
"428 148 OFFCURVE",
"482 104 OFFCURVE",
"556 104 CURVE SMOOTH",
"651 104 OFFCURVE",
"716 167 OFFCURVE",
"716 256 CURVE SMOOTH",
"716 343 OFFCURVE",
"649 406 OFFCURVE",
"550 406 CURVE SMOOTH",
"478 406 OFFCURVE",
"425 364 OFFCURVE",
"383 317 CURVE",
"340 364 OFFCURVE",
"287 406 OFFCURVE",
"215 406 CURVE SMOOTH",
"116 406 OFFCURVE",
"49 343 OFFCURVE",
"49 256 CURVE SMOOTH",
"49 167 OFFCURVE",
"114 104 OFFCURVE",
"209 104 CURVE SMOOTH",
"283 104 OFFCURVE",
"337 148 OFFCURVE",
"383 198 CURVE"
);
},
{
closed = 1;
nodes = (
"289 200 OFFCURVE",
"256 180 OFFCURVE",
"213 180 CURVE SMOOTH",
"165 180 OFFCURVE",
"130 214 OFFCURVE",
"130 256 CURVE SMOOTH",
"130 301 OFFCURVE",
"167 330 OFFCURVE",
"216 330 CURVE SMOOTH",
"265 330 OFFCURVE",
"299 299 OFFCURVE",
"335 256 CURVE"
);
},
{
closed = 1;
nodes = (
"467 299 OFFCURVE",
"501 330 OFFCURVE",
"549 330 CURVE SMOOTH",
"598 330 OFFCURVE",
"635 301 OFFCURVE",
"635 256 CURVE SMOOTH",
"635 214 OFFCURVE",
"600 180 OFFCURVE",
"552 180 CURVE SMOOTH",
"509 180 OFFCURVE",
"477 200 OFFCURVE",
"431 256 CURVE"
);
}
);
width = 780;
}
);
unicode = 221E;
},
{
color = (255,153,254,255);
glyphname = Omega;
lastChange = "2021-04-20 16:20:30 +0000";
layers = (
{
layerId = "678C5AFE-F8DA-443A-BB17-9B03ED7099AB";
paths = (
{
closed = 1;
nodes = (
"76 0 LINE",
"312 0 LINE",
"312 173 LINE",
"218 198 OFFCURVE",
"149 284 OFFCURVE",
"149 385 CURVE SMOOTH",
"149 507 OFFCURVE",
"248 606 OFFCURVE",
"369 606 CURVE SMOOTH",
"491 606 OFFCURVE",
"590 507 OFFCURVE",
"590 385 CURVE SMOOTH",
"590 284 OFFCURVE",
"521 198 OFFCURVE",
"427 173 CURVE",
"427 0 LINE",
"663 0 LINE",
"663 81 LINE",
"512 81 LINE",
"512 130 LINE",
"602 180 OFFCURVE",
"663 276 OFFCURVE",
"663 385 CURVE SMOOTH",
"663 548 OFFCURVE",
"532 680 OFFCURVE",
"369 680 CURVE SMOOTH",
"207 680 OFFCURVE",
"76 548 OFFCURVE",
"76 385 CURVE SMOOTH",
"76 276 OFFCURVE",
"137 180 OFFCURVE",
"227 130 CURVE",
"227 81 LINE",
"76 81 LINE"
);
}
);
width = 776;
}
);
leftMetricsKey = O;
rightMetricsKey = O;
unicode = 03A9;
},
{
color = (255,153,254,255);
glyphname = estimated;
layers = (
{
layerId = "678C5AFE-F8DA-443A-BB17-9B03ED7099AB";
paths = (
{
closed = 1;
nodes = (
"156 248 LINE",
"566 248 LINE",
"565 389 OFFCURVE",
"450 504 OFFCURVE",
"308 504 CURVE SMOOTH",
"154 504 OFFCURVE",
"50 374 OFFCURVE",
"50 256 CURVE SMOOTH",
"50 79 OFFCURVE",
"186 -12 OFFCURVE",
"308 -12 CURVE SMOOTH",
"391 -12 OFFCURVE",
"464 27 OFFCURVE",
"511 87 CURVE",
"478 97 LINE",
"437 50 OFFCURVE",
"376 20 OFFCURVE",
"308 20 CURVE SMOOTH",
"249 20 OFFCURVE",
"196 42 OFFCURVE",
"156 78 CURVE"
);
},
{
closed = 1;
nodes = (
"156 279 LINE",
"156 413 LINE",
"196 450 OFFCURVE",
"249 472 OFFCURVE",
"308 472 CURVE SMOOTH",
"366 472 OFFCURVE",
"420 450 OFFCURVE",
"460 413 CURVE",
"460 279 LINE"
);
}
);
width = 628;
}
);
unicode = 212E;
},
{
color = (255,153,254,255);
glyphname = partialdiff;
layers = (
{
layerId = "678C5AFE-F8DA-443A-BB17-9B03ED7099AB";
paths = (
{
closed = 1;
nodes = (
"140 598 LINE",
"273 601 OFFCURVE",
"381 578 OFFCURVE",
"421 450 CURVE",
"389 490 OFFCURVE",
"330 504 OFFCURVE",
"289 504 CURVE SMOOTH",
"174 504 OFFCURVE",
"51 426 OFFCURVE",
"51 246 CURVE SMOOTH",
"51 66 OFFCURVE",
"174 -12 OFFCURVE",
"289 -12 CURVE SMOOTH",
"463 -12 OFFCURVE",
"528 122 OFFCURVE",
"528 277 CURVE SMOOTH",
"528 683 OFFCURVE",
"261 680 OFFCURVE",
"140 680 CURVE"
);
},
{
closed = 1;
nodes = (
"217 61 OFFCURVE",
"140 117 OFFCURVE",
"140 246 CURVE SMOOTH",
"140 374 OFFCURVE",
"217 430 OFFCURVE",
"289 430 CURVE SMOOTH",
"361 430 OFFCURVE",
"437 374 OFFCURVE",
"437 246 CURVE SMOOTH",
"437 117 OFFCURVE",
"361 61 OFFCURVE",
"289 61 CURVE SMOOTH"
);
}
);
width = 595;
}
);
unicode = 2202;
},
{
color = (255,153,254,255);
glyphname = Delta;
layers = (
{
layerId = "678C5AFE-F8DA-443A-BB17-9B03ED7099AB";
paths = (
{
closed = 1;
nodes = (
"-9 0 LINE",
"644 0 LINE",
"317 680 LINE"
);
},
{
closed = 1;
nodes = (
"116 78 LINE",
"317 498 LINE",
"518 78 LINE"
);
}
);
width = 759;
}
);
unicode = 0394;
},
{
color = (255,153,254,255);
glyphname = product;
layers = (
{
layerId = "678C5AFE-F8DA-443A-BB17-9B03ED7099AB";
paths = (
{
closed = 1;
nodes = (
"133 -161 LINE",
"214 -161 LINE",
"214 587 LINE",
"530 587 LINE",
"530 -161 LINE",
"612 -161 LINE",
"612 668 LINE",
"133 668 LINE"
);
}
);
width = 761;
}
);
unicode = 220F;
},
{
color = (255,153,254,255);
glyphname = pi;
layers = (
{
layerId = "678C5AFE-F8DA-443A-BB17-9B03ED7099AB";
paths = (
{
closed = 1;
nodes = (
"41 0 LINE",
"124 0 LINE",
"212 416 LINE",
"406 416 LINE",
"345 125 LINE SMOOTH",
"327 37 OFFCURVE",
"338 0 OFFCURVE",
"437 0 CURVE SMOOTH",
"488 0 LINE",
"504 75 LINE",
"472 75 LINE SMOOTH",
"418 75 OFFCURVE",
"425 95 OFFCURVE",
"434 140 CURVE SMOOTH",
"492 416 LINE",
"576 416 LINE",
"594 496 LINE",
"63 496 LINE",
"46 416 LINE",
"129 416 LINE"
);
}
);
width = 590;
}
);
leftMetricsKey = t;
rightMetricsKey = t;
unicode = 03C0;
},
{
color = (255,153,254,255);
glyphname = hungarumlaut;
layers = (
{
layerId = "678C5AFE-F8DA-443A-BB17-9B03ED7099AB";
paths = (
{
closed = 1;
nodes = (
"177 572 LINE",
"177 572 OFFCURVE",
"255 624 OFFCURVE",
"275 642 CURVE SMOOTH",
"290 656 OFFCURVE",
"292 680 OFFCURVE",
"278 696 CURVE SMOOTH",
"264 712 OFFCURVE",
"240 712 OFFCURVE",
"224 699 CURVE",
"205 681 OFFCURVE",
"103 572 OFFCURVE",
"103 572 CURVE"
);
},
{
closed = 1;
nodes = (
"322 572 LINE",
"322 572 OFFCURVE",
"400 624 OFFCURVE",
"420 642 CURVE SMOOTH",
"436 656 OFFCURVE",
"436 680 OFFCURVE",
"423 696 CURVE SMOOTH",
"410 712 OFFCURVE",
"386 712 OFFCURVE",
"370 699 CURVE SMOOTH",
"349 682 OFFCURVE",
"249 572 OFFCURVE",
"249 572 CURVE"
);
}
);
width = 394;
}
);
unicode = 02DD;
},
{
color = (255,153,254,255);
glyphname = tilde;
layers = (
{
layerId = "678C5AFE-F8DA-443A-BB17-9B03ED7099AB";
paths = (
{
closed = 1;
nodes = (
"155 577 LINE",
"166 602 OFFCURVE",
"187 617 OFFCURVE",
"217 617 CURVE SMOOTH",
"269 617 OFFCURVE",
"287 575 OFFCURVE",
"346 575 CURVE SMOOTH",
"401 575 OFFCURVE",
"432 605 OFFCURVE",
"449 632 CURVE SMOOTH",
"469 663 OFFCURVE",
"430 700 OFFCURVE",
"397 667 CURVE SMOOTH",
"383 653 OFFCURVE",
"371 638 OFFCURVE",
"346 638 CURVE SMOOTH",
"305 638 OFFCURVE",
"284 680 OFFCURVE",
"218 680 CURVE SMOOTH",
"165 680 OFFCURVE",
"117 648 OFFCURVE",
"90 577 CURVE"
);
}
);
width = 420;
}
);
unicode = 02DC;
},
{
color = (255,153,254,255);
glyphname = endash;
layers = (
{
layerId = "678C5AFE-F8DA-443A-BB17-9B03ED7099AB";
paths = (
{
closed = 1;
nodes = (
"40 208 LINE",
"438 208 LINE",
"438 287 LINE",
"40 287 LINE"
);
}
);
width = 497;
}
);
leftKerningGroup = hyphen;
rightKerningGroup = hyphen_2;
unicode = 2013;
},
{
color = (255,153,254,255);
glyphname = emdash;
layers = (
{
layerId = "678C5AFE-F8DA-443A-BB17-9B03ED7099AB";
paths = (
{
closed = 1;
nodes = (
"40 208 LINE",
"758 208 LINE",
"758 287 LINE",
"40 287 LINE"
);
}
);
width = 817;
}
);
leftKerningGroup = hyphen;
rightKerningGroup = hyphen_2;
unicode = 2014;
},
{
color = (255,153,254,255);
glyphname = trademark;
layers = (
{
layerId = "678C5AFE-F8DA-443A-BB17-9B03ED7099AB";
paths = (
{
closed = 1;
nodes = (
"473 292 LINE",
"540 292 LINE",
"540 571 LINE",
"638 292 LINE",
"710 292 LINE",
"808 571 LINE",
"808 292 LINE",
"875 292 LINE",
"875 668 LINE",
"767 668 LINE",
"674 384 LINE",
"581 668 LINE",
"473 668 LINE"
);
},
{
closed = 1;
nodes = (
"251 292 LINE",
"318 292 LINE",
"318 608 LINE",
"436 608 LINE",
"436 668 LINE",
"133 668 LINE",
"133 608 LINE",
"251 608 LINE"
);
}
);
width = 928;
}
);
unicode = 2122;
},
{
color = (255,153,254,255);
glyphname = dotlessi;
lastChange = "2021-04-20 16:20:30 +0000";
layers = (
{
layerId = "678C5AFE-F8DA-443A-BB17-9B03ED7099AB";
paths = (
{
closed = 1;
nodes = (
"46 0 LINE",
"132 0 LINE",
"237 496 LINE",
"71 496 LINE",
"57 428 LINE",
"137 428 LINE"
);
}
);
width = 248;
}
);
leftKerningGroup = i;
leftMetricsKey = i;
rightMetricsKey = i;
unicode = 0131;
},
{
color = (255,153,254,255);
glyphname = Euro;
lastChange = "2021-04-20 16:20:30 +0000";
layers = (
{
layerId = "678C5AFE-F8DA-443A-BB17-9B03ED7099AB";
paths = (
{
closed = 1;
nodes = (
"4 240 LINE",
"116 240 LINE",
"123 109 OFFCURVE",
"193 -12 OFFCURVE",
"364 -12 CURVE SMOOTH",
"477 -12 OFFCURVE",
"571 39 OFFCURVE",
"631 139 CURVE",
"556 169 LINE",
"510 98 OFFCURVE",
"457 67 OFFCURVE",
"375 67 CURVE SMOOTH",
"281 67 OFFCURVE",
"219 136 OFFCURVE",
"208 240 CURVE",
"332 240 LINE",
"370 291 LINE",
"207 291 LINE",
"209 322 OFFCURVE",
"213 345 OFFCURVE",
"221 376 CURVE",
"435 376 LINE",
"474 427 LINE",
"238 427 LINE",
"281 535 OFFCURVE",
"360 600 OFFCURVE",
"456 600 CURVE SMOOTH",
"528 600 OFFCURVE",
"582 565 OFFCURVE",
"603 499 CURVE",
"688 528 LINE",
"658 630 OFFCURVE",
"576 679 OFFCURVE",
"466 679 CURVE SMOOTH",
"311 679 OFFCURVE",
"196 577 OFFCURVE",
"144 427 CURVE",
"72 427 LINE",
"33 376 LINE",
"129 376 LINE",
"122 346 OFFCURVE",
"118 320 OFFCURVE",
"116 291 CURVE",
"43 291 LINE"
);
}
);
width = 697;
}
);
leftMetricsKey = f;
rightMetricsKey = C;
unicode = 20AC;
},
{
color = (255,153,254,255);
glyphname = uni2113;
layers = (
{
layerId = "678C5AFE-F8DA-443A-BB17-9B03ED7099AB";
paths = (
{
closed = 1;
nodes = (
"20 138 LINE",
"98 188 LINE",
"91 156 LINE SMOOTH",
"65 37 OFFCURVE",
"98 -12 OFFCURVE",
"199 -12 CURVE SMOOTH",
"255 -12 OFFCURVE",
"310 13 OFFCURVE",
"345 42 CURVE",
"321 100 LINE",
"292 78 OFFCURVE",
"259 61 OFFCURVE",
"225 61 CURVE SMOOTH",
"187 61 OFFCURVE",
"162 78 OFFCURVE",
"177 151 CURVE SMOOTH",
"198 251 LINE",
"340 341 OFFCURVE",
"434 424 OFFCURVE",
"446 547 CURVE SMOOTH",
"455 637 OFFCURVE",
"403 679 OFFCURVE",
"331 679 CURVE SMOOTH",
"228 679 OFFCURVE",
"190 616 OFFCURVE",
"166 506 CURVE SMOOTH",
"117 278 LINE",
"39 227 LINE"
);
},
{
closed = 1;
nodes = (
"255 517 LINE SMOOTH",
"270 588 OFFCURVE",
"288 609 OFFCURVE",
"326 609 CURVE SMOOTH",
"358 609 OFFCURVE",
"376 589 OFFCURVE",
"363 536 CURVE SMOOTH",
"344 458 OFFCURVE",
"298 392 OFFCURVE",
"218 343 CURVE"
);
}
);
width = 451;
}
);
unicode = 2113;
},
{
color = (255,153,254,255);
glyphname = Lslash;
lastChange = "2021-04-20 16:20:30 +0000";
layers = (
{
layerId = "678C5AFE-F8DA-443A-BB17-9B03ED7099AB";
paths = (
{
closed = 1;
nodes = (
"45 0 LINE",
"500 0 LINE",
"517 82 LINE",
"158 82 LINE",
"210 324 LINE",
"412 431 LINE",
"427 504 LINE",
"226 396 LINE",
"283 668 LINE",
"187 668 LINE",
"117 339 LINE",
"18 287 LINE",
"3 214 LINE",
"102 266 LINE"
);
}
);
width = 572;
}
);
leftMetricsKey = t;
rightKerningGroup = L;
rightMetricsKey = L;
unicode = 0141;
},
{
color = (255,153,254,255);
glyphname = lslash;
layers = (
{
layerId = "678C5AFE-F8DA-443A-BB17-9B03ED7099AB";
paths = (
{
closed = 1;
nodes = (
"212 75 LINE",
"212 75 OFFCURVE",
"184 75 OFFCURVE",
"174 75 CURVE SMOOTH",
"126 75 OFFCURVE",
"127 94 OFFCURVE",
"136 140 CURVE SMOOTH",
"175 323 LINE",
"276 376 LINE",
"291 447 LINE",
"190 393 LINE",
"249 668 LINE",
"163 668 LINE",
"94 342 LINE",
"18 303 LINE",
"3 232 LINE",
"79 272 LINE",
"47 125 LINE",
"30 41 OFFCURVE",
"35 0 OFFCURVE",
"140 0 CURVE SMOOTH",
"154 0 OFFCURVE",
"196 0 OFFCURVE",
"196 0 CURVE"
);
}
);
width = 273;
}
);
leftMetricsKey = f;
rightMetricsKey = l;
unicode = 0142;
},
{
color = (255,153,254,255);
glyphname = oslash;
lastChange = "2021-04-20 16:20:30 +0000";
layers = (
{
layerId = "678C5AFE-F8DA-443A-BB17-9B03ED7099AB";
paths = (
{
closed = 1;
nodes = (
"25 -11 LINE",
"82 43 LINE",
"116 8 OFFCURVE",
"166 -12 OFFCURVE",
"231 -12 CURVE SMOOTH",
"405 -12 OFFCURVE",
"481 143 OFFCURVE",
"497 236 CURVE SMOOTH",
"510 311 OFFCURVE",
"499 368 OFFCURVE",
"475 411 CURVE",
"539 472 LINE",
"504 509 LINE",
"443 451 LINE",
"406 487 OFFCURVE",
"355 504 OFFCURVE",
"303 504 CURVE SMOOTH",
"189 504 OFFCURVE",
"56 430 OFFCURVE",
"30 246 CURVE",
"22 183 OFFCURVE",
"29 128 OFFCURVE",
"52 84 CURVE",
"-10 26 LINE"
);
},
{
closed = 1;
nodes = (
"121 149 LINE",
"114 177 OFFCURVE",
"114 210 OFFCURVE",
"120 246 CURVE SMOOTH",
"144 389 OFFCURVE",
"219 430 OFFCURVE",
"290 430 CURVE SMOOTH",
"328 430 OFFCURVE",
"361 420 OFFCURVE",
"384 395 CURVE"
);
},
{
closed = 1;
nodes = (
"407 348 LINE",
"414 322 OFFCURVE",
"415 289 OFFCURVE",
"408 246 CURVE SMOOTH",
"390 135 OFFCURVE",
"327 62 OFFCURVE",
"238 62 CURVE SMOOTH",
"197 62 OFFCURVE",
"165 76 OFFCURVE",
"145 102 CURVE"
);
}
);
width = 547;
}
);
leftKerningGroup = c;
leftMetricsKey = o;
rightKerningGroup = b;
rightMetricsKey = o;
unicode = 00F8;
},
{
color = (255,153,254,255);
glyphname = Oslash;
lastChange = "2021-04-20 16:20:30 +0000";
layers = (
{
layerId = "678C5AFE-F8DA-443A-BB17-9B03ED7099AB";
paths = (
{
closed = 1;
nodes = (
"40 -4 LINE",
"119 70 LINE",
"163 18 OFFCURVE",
"229 -12 OFFCURVE",
"312 -12 CURVE SMOOTH",
"542 -12 OFFCURVE",
"657 161 OFFCURVE",
"685 333 CURVE SMOOTH",
"699 423 OFFCURVE",
"686 504 OFFCURVE",
"648 566 CURVE",
"729 642 LINE",
"694 679 LINE",
"616 606 LINE",
"572 652 OFFCURVE",
"510 679 OFFCURVE",
"432 679 CURVE SMOOTH",
"223 679 OFFCURVE",
"89 535 OFFCURVE",
"59 333 CURVE SMOOTH",
"47 250 OFFCURVE",
"58 172 OFFCURVE",
"90 112 CURVE",
"5 32 LINE"
);
},
{
closed = 1;
nodes = (
"163 181 LINE",
"149 222 OFFCURVE",
"145 273 OFFCURVE",
"155 333 CURVE SMOOTH",
"180 483 OFFCURVE",
"268 600 OFFCURVE",
"419 600 CURVE SMOOTH",
"470 600 OFFCURVE",
"516 580 OFFCURVE",
"548 542 CURVE"
);
},
{
closed = 1;
nodes = (
"576 498 LINE",
"594 456 OFFCURVE",
"601 400 OFFCURVE",
"590 333 CURVE SMOOTH",
"562 166 OFFCURVE",
"459 67 OFFCURVE",
"325 67 CURVE SMOOTH",
"269 67 OFFCURVE",
"220 90 OFFCURVE",
"188 134 CURVE"
);
}
);
width = 728;
}
);
leftMetricsKey = O;
rightMetricsKey = O;
unicode = 00D8;
},
{
color = (255,153,254,255);
glyphname = Thorn;
lastChange = "2021-04-20 16:20:30 +0000";
layers = (
{
layerId = "678C5AFE-F8DA-443A-BB17-9B03ED7099AB";
paths = (
{
closed = 1;
nodes = (
"13 -8 LINE",
"99 -8 LINE",
"134 155 LINE",
"261 155 LINE SMOOTH",
"430 155 OFFCURVE",
"523 193 OFFCURVE",
"554 318 CURVE SMOOTH",
"592 471 OFFCURVE",
"494 519 OFFCURVE",
"338 519 CURVE SMOOTH",
"211 519 LINE",
"241 659 LINE",
"155 659 LINE"
);
},
{
closed = 1;
nodes = (
"151 236 LINE",
"194 438 LINE",
"329 438 LINE SMOOTH",
"452 438 OFFCURVE",
"474 403 OFFCURVE",
"454 321 CURVE SMOOTH",
"443 275 OFFCURVE",
"401 236 OFFCURVE",
"287 236 CURVE SMOOTH"
);
}
);
width = 582;
}
);
leftKerningGroup = B;
leftMetricsKey = B;
rightMetricsKey = B;
unicode = 00DE;
},
{
color = (255,153,254,255);
glyphname = ae;
layers = (
{
layerId = "678C5AFE-F8DA-443A-BB17-9B03ED7099AB";
paths = (
{
closed = 1;
nodes = (
"159 358 LINE",
"180 406 OFFCURVE",
"225 435 OFFCURVE",
"285 435 CURVE SMOOTH",
"371 435 OFFCURVE",
"390 388 OFFCURVE",
"366 292 CURVE",
"144 292 OFFCURVE",
"86 263 OFFCURVE",
"41 217 CURVE SMOOTH",
"-1 174 OFFCURVE",
"-23 55 OFFCURVE",
"71 7 CURVE SMOOTH",
"134 -25 OFFCURVE",
"298 -28 OFFCURVE",
"381 100 CURVE",
"412 32 OFFCURVE",
"474 -12 OFFCURVE",
"564 -12 CURVE SMOOTH",
"660 -12 OFFCURVE",
"730 28 OFFCURVE",
"776 87 CURVE",
"698 111 LINE",
"670 81 OFFCURVE",
"630 62 OFFCURVE",
"575 62 CURVE SMOOTH",
"504 62 OFFCURVE",
"429 100 OFFCURVE",
"442 225 CURVE",
"827 225 LINE",
"861 371 OFFCURVE",
"796 504 OFFCURVE",
"636 504 CURVE SMOOTH",
"560 504 OFFCURVE",
"494 479 OFFCURVE",
"445 432 CURVE",
"422 475 OFFCURVE",
"374 500 OFFCURVE",
"293 504 CURVE SMOOTH",
"192 509 OFFCURVE",
"118 459 OFFCURVE",
"83 382 CURVE"
);
},
{
closed = 1;
nodes = (
"455 292 LINE",
"474 381 OFFCURVE",
"549 432 OFFCURVE",
"624 432 CURVE SMOOTH",
"721 432 OFFCURVE",
"755 357 OFFCURVE",
"747 292 CURVE"
);
},
{
closed = 1;
nodes = (
"337 124 OFFCURVE",
"268 57 OFFCURVE",
"174 56 CURVE",
"113 56 OFFCURVE",
"92 96 OFFCURVE",
"101 139 CURVE SMOOTH",
"116 215 OFFCURVE",
"235 224 OFFCURVE",
"358 224 CURVE"
);
}
);
width = 869;
}
);
leftKerningGroup = a;
leftMetricsKey = a;
rightKerningGroup = e;
rightMetricsKey = e;
unicode = 00E6;
},
{
color = (255,153,254,255);
glyphname = eth;
layers = (
{
layerId = "678C5AFE-F8DA-443A-BB17-9B03ED7099AB";
paths = (
{
closed = 1;
nodes = (
"301 473 LINE",
"394 550 LINE",
"431 510 OFFCURVE",
"449 442 OFFCURVE",
"437 339 CURVE",
"418 391 OFFCURVE",
"357 445 OFFCURVE",
"270 445 CURVE SMOOTH",
"129 445 OFFCURVE",
"38 347 OFFCURVE",
"25 219 CURVE SMOOTH",
"13 96 OFFCURVE",
"107 -12 OFFCURVE",
"232 -12 CURVE SMOOTH",
"483 -12 OFFCURVE",
"524 266 OFFCURVE",
"526 365 CURVE SMOOTH",
"529 479 OFFCURVE",
"505 556 OFFCURVE",
"460 605 CURVE",
"507 643 LINE",
"478 679 LINE",
"425 635 LINE",
"376 669 OFFCURVE",
"313 681 OFFCURVE",
"237 679 CURVE",
"221 603 LINE",
"274 606 OFFCURVE",
"320 599 OFFCURVE",
"357 579 CURVE",
"273 509 LINE"
);
},
{
closed = 1;
nodes = (
"147 59 OFFCURVE",
"97 140 OFFCURVE",
"109 219 CURVE",
"121 312 OFFCURVE",
"182 370 OFFCURVE",
"274 370 CURVE SMOOTH",
"352 370 OFFCURVE",
"410 313 OFFCURVE",
"399 215 CURVE SMOOTH",
"389 122 OFFCURVE",
"330 59 OFFCURVE",
"242 59 CURVE SMOOTH"
);
}
);
width = 571;
}
);
leftKerningGroup = c;
leftMetricsKey = d;
rightKerningGroup = D;
rightMetricsKey = D;
unicode = 00F0;
},
{
color = (255,153,254,255);
glyphname = thorn;
lastChange = "2021-04-20 16:20:30 +0000";
layers = (
{
layerId = "678C5AFE-F8DA-443A-BB17-9B03ED7099AB";
paths = (
{
closed = 1;
nodes = (
"-26 -161 LINE",
"60 -161 LINE",
"115 94 LINE",
"132 37 OFFCURVE",
"186 -12 OFFCURVE",
"265 -12 CURVE SMOOTH",
"395 -12 OFFCURVE",
"509 101 OFFCURVE",
"510 291 CURVE",
"510 429 OFFCURVE",
"435 504 OFFCURVE",
"328 504 CURVE SMOOTH",
"270 504 OFFCURVE",
"221 480 OFFCURVE",
"188 438 CURVE",
"236 668 LINE",
"150 668 LINE"
);
},
{
closed = 1;
nodes = (
"189 60 OFFCURVE",
"141 115 OFFCURVE",
"141 218 CURVE SMOOTH",
"141 297 OFFCURVE",
"191 432 OFFCURVE",
"309 432 CURVE SMOOTH",
"373 432 OFFCURVE",
"420 388 OFFCURVE",
"419 288 CURVE",
"419 190 OFFCURVE",
"365 60 OFFCURVE",
"262 60 CURVE SMOOTH"
);
}
);
width = 557;
}
);
leftKerningGroup = B;
leftMetricsKey = p;
rightKerningGroup = b;
rightMetricsKey = p;
unicode = 00FE;
},
{
color = (255,153,254,255);
glyphname = uni02C9;
layers = (
{
layerId = "678C5AFE-F8DA-443A-BB17-9B03ED7099AB";
paths = (
{
closed = 1;
nodes = (
"117 594 LINE",
"393 594 LINE",
"407 661 LINE",
"131 661 LINE"
);
}
);
width = 382;
}
);
unicode = 02C9;
},
{
color = (255,153,254,255);
glyphname = multiply;
layers = (
{
layerId = "678C5AFE-F8DA-443A-BB17-9B03ED7099AB";
paths = (
{
closed = 1;
nodes = (
"134 39 LINE",
"288 193 LINE",
"442 39 LINE",
"499 97 LINE",
"346 250 LINE",
"499 404 LINE",
"442 462 LINE",
"288 308 LINE",
"134 462 LINE",
"77 404 LINE",
"231 250 LINE",
"77 97 LINE"
);
}
);
width = 593;
}
);
unicode = 00D7;
},
{
color = (255,153,254,255);
glyphname = divide;
layers = (
{
layerId = "678C5AFE-F8DA-443A-BB17-9B03ED7099AB";
paths = (
{
closed = 1;
nodes = (
"52 208 LINE",
"548 208 LINE",
"548 289 LINE",
"52 289 LINE"
);
},
{
closed = 1;
nodes = (
"336 14 OFFCURVE",
"364 43 OFFCURVE",
"364 79 CURVE SMOOTH",
"364 114 OFFCURVE",
"336 143 OFFCURVE",
"300 143 CURVE SMOOTH",
"264 143 OFFCURVE",
"235 114 OFFCURVE",
"235 79 CURVE SMOOTH",
"235 43 OFFCURVE",
"264 14 OFFCURVE",
"300 14 CURVE SMOOTH"
);
},
{
closed = 1;
nodes = (
"235 382 OFFCURVE",
"264 354 OFFCURVE",
"300 354 CURVE SMOOTH",
"336 354 OFFCURVE",
"364 382 OFFCURVE",
"364 418 CURVE SMOOTH",
"364 454 OFFCURVE",
"336 483 OFFCURVE",
"300 483 CURVE SMOOTH",
"264 483 OFFCURVE",
"235 454 OFFCURVE",
"235 418 CURVE SMOOTH"
);
}
);
width = 619;
}
);
unicode = 00F7;
},
{
color = (255,153,254,255);
glyphname = OE;
lastChange = "2021-04-20 16:20:30 +0000";
layers = (
{
layerId = "678C5AFE-F8DA-443A-BB17-9B03ED7099AB";
paths = (
{
closed = 1;
nodes = (
"535 0 LINE",
"975 0 LINE",
"992 82 LINE",
"632 82 LINE",
"679 304 LINE",
"945 304 LINE",
"962 384 LINE",
"697 384 LINE",
"740 587 LINE",
"1099 587 LINE",
"1116 668 LINE",
"677 668 LINE",
"653 557 LINE",
"611 632 OFFCURVE",
"535 680 OFFCURVE",
"432 680 CURVE SMOOTH",
"222 680 OFFCURVE",
"89 536 OFFCURVE",
"59 334 CURVE SMOOTH",
"31 142 OFFCURVE",
"126 -12 OFFCURVE",
"312 -12 CURVE SMOOTH",
"423 -12 OFFCURVE",
"497 28 OFFCURVE",
"552 80 CURVE"
);
},
{
closed = 1;
nodes = (
"211 68 OFFCURVE",
"126 162 OFFCURVE",
"155 334 CURVE SMOOTH",
"180 484 OFFCURVE",
"268 601 OFFCURVE",
"419 601 CURVE SMOOTH",
"532 601 OFFCURVE",
"618 505 OFFCURVE",
"589 334 CURVE SMOOTH",
"561 167 OFFCURVE",
"459 68 OFFCURVE",
"325 68 CURVE SMOOTH"
);
}
);
width = 1071;
}
);
leftKerningGroup = C;
leftMetricsKey = O;
rightKerningGroup = E;
rightMetricsKey = E;
unicode = 0152;
},
{
color = (255,153,254,255);
glyphname = oe;
layers = (
{
layerId = "678C5AFE-F8DA-443A-BB17-9B03ED7099AB";
paths = (
{
closed = 1;
nodes = (
"739 111 LINE",
"712 81 OFFCURVE",
"672 62 OFFCURVE",
"616 62 CURVE SMOOTH",
"538 62 OFFCURVE",
"473 105 OFFCURVE",
"484 226 CURVE",
"868 226 LINE",
"904 375 OFFCURVE",
"836 504 OFFCURVE",
"674 504 CURVE SMOOTH",
"590 504 OFFCURVE",
"513 469 OFFCURVE",
"467 406 CURVE",
"428 481 OFFCURVE",
"369 504 OFFCURVE",
"300 504 CURVE SMOOTH",
"192 504 OFFCURVE",
"55 430 OFFCURVE",
"30 247 CURVE SMOOTH",
"8 90 OFFCURVE",
"86 -12 OFFCURVE",
"232 -12 CURVE SMOOTH",
"321 -12 OFFCURVE",
"384 33 OFFCURVE",
"424 86 CURVE",
"461 23 OFFCURVE",
"514 -12 OFFCURVE",
"610 -12 CURVE SMOOTH",
"706 -12 OFFCURVE",
"774 32 OFFCURVE",
"817 87 CURVE"
);
},
{
closed = 1;
nodes = (
"497 293 LINE",
"516 381 OFFCURVE",
"589 432 OFFCURVE",
"664 432 CURVE SMOOTH",
"764 432 OFFCURVE",
"797 360 OFFCURVE",
"789 293 CURVE"
);
},
{
closed = 1;
nodes = (
"147 64 OFFCURVE",
"99 133 OFFCURVE",
"119 249 CURVE SMOOTH",
"143 390 OFFCURVE",
"220 430 OFFCURVE",
"292 430 CURVE SMOOTH",
"370 430 OFFCURVE",
"427 387 OFFCURVE",
"408 248 CURVE SMOOTH",
"392 137 OFFCURVE",
"324 61 OFFCURVE",
"233 62 CURVE"
);
}
);
width = 910;
}
);
leftKerningGroup = c;
leftMetricsKey = o;
rightKerningGroup = e;
rightMetricsKey = e;
unicode = 0153;
},
{
color = (255,153,254,255);
glyphname = Eth;
lastChange = "2021-04-20 16:20:30 +0000";
layers = (
{
components = (
{
alignment = -1;
name = D;
transform = "{1, 0, 0, 1, 36, 0}";
}
);
layerId = "678C5AFE-F8DA-443A-BB17-9B03ED7099AB";
paths = (
{
closed = 1;
nodes = (
"22 303 LINE",
"351 303 LINE",
"368 383 LINE",
"39 383 LINE"
);
}
);
width = 712;
}
);
leftMetricsKey = t;
rightKerningGroup = D;
rightMetricsKey = D;
unicode = 00D0;
},
{
color = (255,153,254,255);
glyphname = one.tf;
layers = (
{
layerId = "678C5AFE-F8DA-443A-BB17-9B03ED7099AB";
paths = (
{
closed = 1;
nodes = (
"37 8 LINE",
"459 8 LINE",
"475 85 LINE",
"317 85 LINE",
"442 677 LINE",
"384 677 LINE",
"356 618 OFFCURVE",
"300 580 OFFCURVE",
"159 580 CURVE",
"144 513 LINE",
"322 513 LINE",
"232 85 LINE",
"53 85 LINE"
);
}
);
width = 639;
}
);
},
{
color = (255,153,254,255);
glyphname = eogonek;
layers = (
{
components = (
{
alignment = -1;
name = e;
}
);
layerId = "678C5AFE-F8DA-443A-BB17-9B03ED7099AB";
paths = (
{
closed = 1;
nodes = (
"344 -107 LINE",
"297 -125 OFFCURVE",
"259 -115 OFFCURVE",
"259 -83 CURVE SMOOTH",
"259 -25 OFFCURVE",
"334 4 OFFCURVE",
"368 19 CURVE",
"288 18 LINE",
"235 -3 OFFCURVE",
"182 -44 OFFCURVE",
"182 -100 CURVE SMOOTH",
"182 -156 OFFCURVE",
"234 -193 OFFCURVE",
"333 -161 CURVE"
);
}
);
width = 541;
}
);
leftKerningGroup = c;
rightKerningGroup = e;
unicode = 0119;
},
{
color = (255,153,254,255);
glyphname = commaaccent;
layers = (
{
components = (
{
alignment = -1;
name = space;
transform = "{1, 0, 0.213, 1, 6, 0}";
}
);
layerId = "678C5AFE-F8DA-443A-BB17-9B03ED7099AB";
paths = (
{
closed = 1;
nodes = (
"-23.851 -251 LINE",
"46.149 -251 OFFCURVE",
"107.078 -209 OFFCURVE",
"119.11 -143 CURVE SMOOTH",
"124.913 -111 OFFCURVE",
"115.141 -77 OFFCURVE",
"81.606 -56 CURVE",
"22.44 -85 LINE",
"46.102 -96 OFFCURVE",
"57.787 -121 OFFCURVE",
"52.259 -147 CURVE SMOOTH",
"39.928 -205 OFFCURVE",
"-18.835 -218 OFFCURVE",
"-49.198 -215 CURVE"
);
}
);
width = 280;
}
);
unicode = 0326;
},
{
color = (255,153,254,255);
glyphname = uogonek;
layers = (
{
components = (
{
alignment = -1;
name = u;
}
);
layerId = "678C5AFE-F8DA-443A-BB17-9B03ED7099AB";
paths = (
{
closed = 1;
nodes = (
"385 -107 LINE",
"338 -125 OFFCURVE",
"300 -114 OFFCURVE",
"300 -89 CURVE SMOOTH",
"300 -55 OFFCURVE",
"345 -23 OFFCURVE",
"408 0 CURVE",
"351 8 LINE",
"299 -7 OFFCURVE",
"223 -40 OFFCURVE",
"223 -106 CURVE SMOOTH",
"223 -156 OFFCURVE",
"275 -193 OFFCURVE",
"374 -161 CURVE"
);
}
);
width = 540;
}
);
leftKerningGroup = u;
leftMetricsKey = u;
rightKerningGroup = u1;
rightMetricsKey = u;
unicode = 0173;
},
{
color = (255,153,254,255);
glyphname = Hbar;
layers = (
{
components = (
{
alignment = -1;
name = H;
transform = "{1, 0, 0, 1, 9, 0}";
}
);
layerId = "678C5AFE-F8DA-443A-BB17-9B03ED7099AB";
paths = (
{
closed = 1;
nodes = (
"55.15 504 LINE",
"745.15 504 LINE",
"761.946 583 LINE",
"71.946 583 LINE"
);
}
);
width = 710;
}
);
leftMetricsKey = T;
rightMetricsKey = T;
unicode = 0126;
},
{
color = (255,153,254,255);
glyphname = hbar;
layers = (
{
components = (
{
alignment = -1;
name = h;
transform = "{1, 0, 0, 1, 32, 0}";
}
);
layerId = "678C5AFE-F8DA-443A-BB17-9B03ED7099AB";
paths = (
{
closed = 1;
nodes = (
"73.505 548 LINE",
"402.505 548 LINE",
"416.749 615 LINE",
"87.749 615 LINE"
);
}
);
width = 581;
}
);
leftMetricsKey = t;
rightMetricsKey = h;
unicode = 0127;
},
{
color = (255,153,254,255);
glyphname = caron.salt;
layers = (
{
layerId = "678C5AFE-F8DA-443A-BB17-9B03ED7099AB";
paths = (
{
closed = 1;
nodes = (
"145.237 495 LINE",
"223.725 629 LINE",
"236.891 658 OFFCURVE",
"221.143 678 OFFCURVE",
"197.143 678 CURVE SMOOTH",
"174.143 678 OFFCURVE",
"159.316 660 OFFCURVE",
"154.977 649 CURVE",
"142.662 624 OFFCURVE",
"101.001 508 OFFCURVE",
"96.237 495 CURVE"
);
}
);
width = 206;
}
);
},
{
color = (255,153,254,255);
glyphname = dcroat;
layers = (
{
components = (
{
alignment = -1;
name = d;
}
);
layerId = "678C5AFE-F8DA-443A-BB17-9B03ED7099AB";
paths = (
{
closed = 1;
nodes = (
"293.505 548 LINE",
"622.505 548 LINE",
"636.749 615 LINE",
"307.749 615 LINE"
);
}
);
width = 602;
}
);
leftKerningGroup = c;
leftMetricsKey = d;
rightKerningGroup = f;
rightMetricsKey = f;
unicode = 0111;
},
